<?xml version="1.0" standalone="no"?>
<!DOCTYPE svg PUBLIC "-//W3C//DTD SVG 20010904//EN"
 "http://www.w3.org/TR/2001/REC-SVG-20010904/DTD/svg10.dtd">
<svg version="1.0" xmlns="http://www.w3.org/2000/svg"
 width="154.000000pt" height="154.000000pt" viewBox="0 0 154.000000 154.000000"
 preserveAspectRatio="xMidYMid meet">

<g transform="translate(0.000000,154.000000) scale(0.100000,-0.100000)"
fill="#000000" stroke="none">
<path d="M75 955 c-67 -114 -69 -119 -57 -140 7 -13 22 6 72 94 l64 111 106 0
105 0 50 -87 c28 -47 51 -90 53 -94 2 -5 -19 -45 -46 -91 -77 -132 -76 -128
-53 -128 15 0 35 25 75 94 31 51 58 101 62 110 4 10 -17 55 -56 121 l-62 105
-128 0 -129 0 -56 -95z"/>
<path d="M570 899 c0 -233 19 -270 140 -277 l70 -4 0 31 c0 30 -2 31 -40 31
-30 0 -47 7 -65 25 -24 24 -25 28 -25 185 l0 160 -40 0 -40 0 0 -151z"/>
<path d="M810 1015 c0 -33 2 -35 35 -35 33 0 35 2 35 35 0 33 -2 35 -35 35
-33 0 -35 -2 -35 -35z"/>
<path d="M90 881 c-50 -87 -54 -96 -43 -116 7 -12 20 4 58 70 l49 85 77 0 77
0 37 -66 c42 -75 43 -65 -25 -182 -30 -52 -31 -53 -9 -50 16 2 35 25 66 76 24
41 43 80 43 87 0 8 -21 48 -46 90 l-45 75 -99 0 -99 0 -41 -69z"/>
<path d="M810 780 l0 -160 35 0 35 0 0 160 0 160 -35 0 -35 0 0 -160z"/>
<path d="M910 781 l0 -161 40 0 40 0 0 130 0 130 40 0 c30 0 47 -7 65 -25 23
-23 25 -31 25 -130 l0 -105 40 0 40 0 0 93 c0 113 -11 155 -51 193 -29 28 -35
29 -135 32 l-104 4 0 -161z"/>
<path d="M1310 927 c-54 -19 -80 -66 -80 -149 0 -76 16 -120 53 -140 12 -7 56
-15 97 -18 l75 -5 3 -52 3 -53 35 0 34 0 0 215 0 215 -92 -1 c-51 0 -109 -5
-128 -12z m148 -149 l3 -98 -58 0 c-32 0 -63 4 -69 8 -21 13 -34 51 -34 94 0
74 30 97 120 94 l35 -1 3 -97z"/>
<path d="M100 798 c-16 -29 -30 -57 -30 -63 0 -5 14 -34 31 -63 l30 -53 71 3
72 3 32 54 c36 59 36 56 -13 134 -23 37 -23 37 -93 37 l-70 0 -30 -52z m173
-20 l25 -43 -24 -40 c-22 -37 -27 -40 -72 -43 -48 -3 -49 -3 -72 41 l-23 44
23 41 c23 40 26 42 71 42 45 0 48 -2 72 -42z"/>
</g>
</svg>
