<?xml version="1.0" standalone="no"?>
<!DOCTYPE svg PUBLIC "-//W3C//DTD SVG 20010904//EN"
 "http://www.w3.org/TR/2001/REC-SVG-20010904/DTD/svg10.dtd">
<svg version="1.0" xmlns="http://www.w3.org/2000/svg"
 width="921.000000pt" height="651.000000pt" viewBox="0 0 921.000000 651.000000"
 preserveAspectRatio="xMidYMid meet">

<g transform="translate(0.000000,651.000000) scale(0.100000,-0.100000)"
fill="#000000" stroke="none">
<path d="M6165 6500 c3 -5 8 -10 11 -10 2 0 4 5 4 10 0 6 -5 10 -11 10 -5 0
-7 -4 -4 -10z"/>
<path d="M6190 6495 c0 -7 19 -11 49 -11 56 1 83 16 30 17 -19 0 -44 2 -56 3
-13 2 -23 -2 -23 -9z"/>
<path d="M7464 6499 c-3 -6 -1 -16 5 -22 6 -6 11 -9 12 -6 0 2 2 12 4 22 4 19
-10 23 -21 6z"/>
<path d="M8907 6484 c-4 -4 -40 -9 -80 -10 -39 -1 -83 -3 -97 -3 -18 -1 -26
-7 -26 -19 0 -14 7 -16 41 -13 22 2 43 9 47 15 6 8 8 8 8 -1 0 -9 12 -11 43
-6 23 3 62 6 87 7 25 0 43 5 42 10 -2 5 2 13 10 17 18 12 -4 12 -36 0 -16 -7
-26 -7 -28 0 -2 6 -7 7 -11 3z"/>
<path d="M7465 6450 c3 -5 -6 -17 -20 -26 -18 -12 -23 -20 -16 -27 15 -15 14
-30 -1 -21 -7 4 -8 3 -4 -4 10 -17 35 -3 42 25 4 15 11 22 20 19 8 -3 20 -9
28 -12 7 -3 16 2 19 10 4 10 0 14 -14 11 -10 -2 -19 1 -19 6 0 6 -4 7 -10 4
-5 -3 -10 1 -10 9 0 9 -5 16 -11 16 -5 0 -8 -4 -4 -10z"/>
<path d="M7553 6415 c0 -8 4 -12 9 -9 5 3 6 10 3 15 -9 13 -12 11 -12 -6z"/>
<path d="M7746 6413 c-6 -14 -5 -15 5 -6 7 7 10 15 7 18 -3 3 -9 -2 -12 -12z"/>
<path d="M7390 6410 c0 -5 5 -10 11 -10 5 0 7 5 4 10 -3 6 -8 10 -11 10 -2 0
-4 -4 -4 -10z"/>
<path d="M7795 6410 c-3 -6 1 -7 9 -4 18 7 21 14 7 14 -6 0 -13 -4 -16 -10z"/>
<path d="M8633 6395 c5 -15 47 -19 61 -5 8 8 7 10 -6 5 -10 -4 -18 -3 -18 2 0
5 -9 9 -20 9 -11 0 -19 -5 -17 -11z"/>
<path d="M9097 6403 c-15 -14 -5 -19 41 -20 32 -1 49 2 49 10 0 13 -79 22 -90
10z"/>
<path d="M7550 6351 c0 -5 7 -12 16 -15 14 -5 15 -4 4 9 -14 17 -20 19 -20 6z"/>
<path d="M7636 6347 c3 -10 9 -15 12 -12 3 3 0 11 -7 18 -10 9 -11 8 -5 -6z"/>
<path d="M7826 6342 c-3 -5 1 -9 9 -9 8 0 12 4 9 9 -3 4 -7 8 -9 8 -2 0 -6 -4
-9 -8z"/>
<path d="M8610 6330 c-12 -7 -10 -9 8 -7 12 0 22 5 22 9 0 11 -12 10 -30 -2z"/>
<path d="M8601 6294 c0 -11 3 -14 6 -6 3 7 2 16 -1 19 -3 4 -6 -2 -5 -13z"/>
<path d="M8718 6288 c3 -13 7 -17 10 -10 3 10 7 10 18 1 19 -16 18 -4 -2 15
-22 23 -33 20 -26 -6z"/>
<path d="M8568 6211 c-12 -4 -15 -10 -8 -21 7 -11 12 -12 21 -3 16 16 8 32
-13 24z"/>
<path d="M8696 6182 c-3 -5 0 -15 8 -21 10 -9 17 -7 27 6 12 14 12 15 0 9 -8
-5 -16 -4 -21 4 -5 7 -10 8 -14 2z"/>
<path d="M8473 5487 c0 -8 6 -14 13 -14 7 0 10 6 7 14 -3 7 -8 13 -12 13 -4 0
-8 -6 -8 -13z"/>
<path d="M7030 5435 c-3 -128 2 -448 6 -459 5 -12 365 -22 416 -11 27 6 28 8
24 61 -3 30 -2 54 2 55 125 9 307 13 318 7 9 -5 33 -4 89 3 23 3 29 0 26 -11
-3 -15 -13 -71 -13 -80 -2 -40 -8 -39 222 -39 189 0 220 2 220 15 0 22 52 67
61 53 4 -7 43 -12 98 -13 77 -2 91 0 91 13 0 14 2 14 10 1 7 -12 12 -12 34 0
20 10 25 20 23 39 -2 16 -10 26 -20 26 -8 0 -19 4 -23 8 -8 7 6 10 41 8 19 -1
19 0 -1 8 -12 5 -25 15 -30 22 -4 7 -3 10 4 5 6 -3 16 2 21 12 9 17 7 18 -16
14 -18 -3 -24 -1 -19 7 4 6 12 9 17 6 10 -7 12 6 3 29 -3 9 -10 13 -15 10 -5
-3 -9 5 -9 17 0 17 3 19 13 10 10 -8 14 -7 14 4 0 7 -5 13 -11 12 -7 -1 -11
17 -12 43 -1 85 -4 100 -18 100 -10 0 -15 -15 -18 -50 -1 -28 1 -50 5 -50 5 0
5 -5 2 -10 -4 -6 -11 -8 -16 -5 -5 3 -6 0 -3 -8 3 -8 0 -18 -6 -22 -7 -4 -4
-13 11 -26 12 -10 19 -19 14 -19 -4 0 -3 -6 3 -13 9 -10 7 -19 -5 -37 -9 -13
-12 -20 -6 -17 6 4 13 -2 16 -13 3 -13 1 -18 -6 -13 -6 4 -8 0 -4 -9 3 -9 0
-21 -6 -27 -9 -9 -9 -14 2 -20 15 -10 17 -9 -149 -15 -135 -5 -127 -2 -126
-33 l1 -28 -185 0 -185 0 2 23 c2 12 -2 22 -8 22 -5 0 -7 6 -3 12 11 18 12 48
2 48 -5 0 -6 5 -3 10 12 19 -5 29 -35 20 -17 -5 -30 -5 -30 -1 0 11 -64 0 -72
-13 -5 -8 -8 -7 -8 2 0 16 -181 14 -192 -2 -5 -8 -8 -7 -8 1 0 8 -14 10 -42 8
-23 -2 -47 0 -53 5 -8 6 -18 4 -31 -6 -19 -15 -19 -15 2 -11 12 2 21 -1 21 -8
0 -7 -7 -11 -15 -8 -11 5 -13 1 -7 -18 5 -19 4 -21 -4 -9 -9 13 -12 13 -20 1
-5 -8 -7 -20 -4 -28 4 -11 8 -11 21 -1 11 9 9 4 -3 -14 -22 -29 -54 -40 -78
-26 -9 4 -18 4 -21 0 -3 -5 -25 -6 -48 -3 -24 4 -60 4 -81 0 -21 -3 -39 -3
-41 0 -2 3 -32 5 -65 5 -34 -1 -64 2 -67 7 -3 5 -1 9 3 9 5 0 8 17 7 38 -1 20
-3 37 -4 37 -6 0 -5 127 1 131 5 3 6 10 4 17 -12 40 -14 77 -3 71 7 -4 8 -3 4
5 -12 19 -15 65 -5 84 6 11 6 17 0 17 -5 0 -8 10 -6 21 3 12 0 29 -5 38 -7 11
-10 -1 -10 -44z m1573 -100 c-3 -9 -8 -14 -10 -11 -3 3 -2 9 2 15 9 16 15 13
8 -4z"/>
<path d="M6718 5430 c-3 -16 0 -34 6 -40 7 -7 7 -10 0 -10 -6 0 -11 -7 -11
-15 0 -18 17 -20 18 -2 5 59 4 97 -2 97 -4 0 -9 -13 -11 -30z"/>
<path d="M8351 5428 c-1 -21 4 -28 17 -28 11 0 13 3 6 8 -7 4 -14 16 -17 27
-4 15 -5 14 -6 -7z"/>
<path d="M3251 5419 c-13 -5 -98 -12 -189 -15 -91 -2 -168 -7 -171 -9 -2 -3
14 -5 37 -5 l42 0 0 -40 c0 -29 4 -40 15 -40 10 0 14 9 13 25 -1 14 -7 25 -12
25 -27 0 9 14 41 16 96 6 213 7 219 2 3 -3 8 -54 11 -112 l5 -107 -46 5 c-25
2 -46 0 -46 -4 0 -4 -17 -6 -37 -4 -54 5 -52 5 -115 1 l-58 -4 -1 46 c0 25 -5
55 -10 66 -6 13 -7 -3 -4 -47 l6 -68 -31 0 c-16 0 -30 -4 -30 -10 0 -11 8 -12
113 -16 38 -1 75 -5 82 -8 8 -3 17 -1 20 4 3 5 39 8 80 7 75 -2 75 -2 75 -29
0 -16 -5 -28 -11 -28 -5 0 -8 4 -5 8 4 7 -64 9 -71 2 -8 -7 -30 -5 -41 4 -10
7 -17 5 -24 -5 -8 -11 -9 -11 -4 4 7 21 -2 21 -28 2 -11 -8 -38 -16 -60 -16
l-41 -2 40 -6 c22 -3 39 -11 38 -17 -1 -7 19 -11 52 -11 41 0 55 4 58 16 4 14
5 14 6 0 1 -13 10 -16 37 -15 20 2 39 8 44 15 4 7 11 12 16 11 5 -1 8 11 6 27
-2 17 3 35 12 42 19 16 16 159 -5 172 -10 6 -10 9 -1 9 13 0 18 105 5 113 -5
3 -19 1 -32 -4z"/>
<path d="M6070 5380 l0 -50 -62 0 c-35 -1 -183 -1 -330 0 -164 0 -268 -4 -268
-9 0 -6 130 -10 338 -9 336 1 338 1 339 22 0 12 1 35 2 51 l1 30 263 1 c184 1
264 -2 270 -10 6 -7 7 -6 4 4 -3 13 -44 15 -280 18 l-277 2 0 -50z"/>
<path d="M7415 5410 c-3 -5 -1 -10 4 -10 6 0 11 5 11 10 0 6 -2 10 -4 10 -3 0
-8 -4 -11 -10z"/>
<path d="M2114 5382 c-15 -10 -39 -57 -25 -47 8 4 10 -3 6 -25 -9 -50 -10
-184 -1 -198 5 -8 0 -12 -13 -12 -12 0 -21 -3 -21 -6 0 -11 28 -33 34 -27 3 4
7 -5 7 -18 1 -17 3 -19 6 -6 5 20 8 20 133 17 53 -1 98 -7 101 -12 4 -6 9 -3
12 8 3 14 5 15 6 3 1 -13 13 -17 53 -18 32 0 55 4 60 12 6 9 8 9 8 0 0 -16 36
-17 45 -2 4 6 13 8 20 5 8 -3 16 0 19 7 2 7 5 4 5 -7 1 -13 4 -16 14 -8 6 5
22 13 35 16 16 6 22 3 22 -8 0 -9 5 -16 10 -16 6 0 10 -9 10 -19 0 -29 11 -32
63 -16 40 12 49 12 61 -1 19 -18 53 -18 63 0 5 10 30 16 73 19 l65 3 -67 2
c-65 2 -68 3 -68 27 0 14 -5 25 -11 25 -5 0 -7 5 -4 10 8 13 -35 13 -55 0 -12
-8 -9 -10 11 -10 15 0 32 -6 38 -14 9 -11 6 -13 -16 -9 -26 3 -27 3 -5 -6 32
-15 27 -21 -8 -11 -21 6 -30 5 -30 -3 0 -8 -3 -8 -9 1 -4 8 -19 13 -32 11 -35
-3 -59 10 -59 33 0 22 4 22 -115 5 -11 -2 -28 0 -37 5 -10 5 -18 3 -21 -5 -4
-9 -8 -8 -17 3 -9 11 -13 12 -17 3 -2 -7 -9 -13 -14 -13 -6 0 -7 5 -4 10 3 6
1 10 -4 10 -6 0 -11 -4 -11 -8 0 -8 -34 -7 -120 2 -19 2 -41 -1 -47 -7 -9 -6
-13 -6 -13 1 0 14 -83 12 -92 -2 -5 -7 -8 -6 -8 2 0 7 -4 11 -8 8 -4 -2 -14
-1 -22 5 -8 5 -10 9 -5 9 11 0 12 170 1 189 -4 6 -2 11 4 11 6 0 8 5 5 11 -8
11 468 5 499 -7 11 -4 16 -1 16 10 0 17 -5 17 -202 20 -49 1 -88 3 -88 6 0 3
-43 5 -95 5 -52 0 -95 -3 -95 -7 0 -4 -9 0 -19 9 -11 9 -18 20 -15 25 6 10 2
10 -12 0z"/>
<path d="M7901 5364 c0 -11 3 -14 6 -6 3 7 2 16 -1 19 -3 4 -6 -2 -5 -13z"/>
<path d="M8624 5346 c1 -34 16 -41 16 -7 0 9 5 22 12 29 9 9 7 12 -8 12 -17 0
-20 -6 -20 -34z"/>
<path d="M366 5352 c-3 -6 -7 -26 -8 -45 l-3 -35 -95 1 c-87 0 -90 1 -35 7
l60 7 -55 1 c-33 1 -61 -3 -68 -10 -16 -16 -16 -220 0 -236 17 -17 19 -42 2
-35 -8 3 -14 0 -14 -5 0 -19 18 -22 34 -6 9 8 16 11 16 5 0 -26 15 -8 16 19 1
39 7 44 33 30 14 -7 21 -7 21 0 0 5 9 10 21 10 12 0 17 4 13 11 -4 7 1 7 16
-1 13 -7 20 -8 16 -2 -3 6 4 13 16 15 13 2 -17 5 -67 6 -50 1 -99 6 -110 11
-16 7 -17 9 -3 9 15 1 16 10 13 60 l-5 58 80 -1 c71 -1 80 1 80 17 0 10 4 16
9 13 5 -3 8 -24 7 -46 0 -24 4 -42 12 -45 7 -2 12 1 11 8 -4 20 14 163 18 150
3 -9 27 -13 73 -13 45 0 70 4 73 13 3 6 5 -58 4 -143 0 -85 -2 -138 -4 -117
-2 20 -8 37 -14 37 -5 0 -6 -15 -3 -34 4 -31 2 -35 -15 -33 -12 1 -21 6 -21
11 0 6 -5 5 -11 -1 -8 -8 -20 -8 -35 -3 -14 6 -26 6 -29 0 -3 -6 -15 -6 -29 0
-26 9 -36 5 -36 -16 0 -10 24 -14 88 -16 66 -2 86 -6 84 -16 -1 -8 2 -11 8 -7
5 3 10 14 11 23 0 14 2 14 8 -2 4 -11 15 -20 24 -22 26 -4 25 112 0 119 -17 4
-17 5 0 6 15 1 17 10 16 64 -1 35 3 72 9 83 12 22 5 38 -18 47 -12 4 -11 6 3
6 29 1 16 36 -13 38 -14 0 -27 2 -30 3 -19 8 -169 9 -174 2z"/>
<path d="M5099 5313 c-3 -108 -11 -159 -29 -177 -16 -16 -12 -26 13 -27 21 -1
21 -1 -2 -8 -31 -8 -39 -31 -13 -37 18 -5 19 -13 17 -102 -4 -140 -4 -142 -12
-141 -20 3 -24 -2 -13 -16 7 -8 9 -15 4 -15 -5 0 -9 -14 -10 -30 -1 -17 4 -30
11 -30 8 0 11 -22 9 -72 -1 -42 -6 -72 -12 -71 -13 3 -36 -53 -27 -66 3 -6 18
-11 33 -12 l27 -1 -25 -7 c-22 -6 -23 -8 -8 -17 13 -7 18 -26 20 -89 l3 -80
223 -2 222 -3 0 25 c0 19 -5 25 -21 25 -11 0 -18 -4 -15 -8 6 -10 -56 -8 -72
2 -7 4 -12 3 -12 -3 0 -6 -7 -8 -15 -5 -9 4 -15 0 -15 -7 0 -12 -2 -12 -9 0
-5 8 -18 12 -30 8 -12 -3 -19 -2 -17 2 7 11 -57 0 -71 -11 -9 -7 -13 -7 -13 1
0 7 -5 9 -12 5 -7 -5 -9 -2 -5 9 3 8 0 18 -8 21 -10 3 -12 0 -8 -11 4 -10 2
-14 -4 -10 -6 4 -14 -1 -18 -11 -6 -15 -8 -14 -16 7 -6 16 -15 22 -27 19 -21
-6 -27 22 -8 34 7 5 7 8 -2 8 -10 0 -13 12 -11 42 3 28 -1 43 -10 46 -11 4
-11 6 0 12 10 7 10 12 -2 26 -8 10 -9 15 -3 11 14 -8 7 82 -7 97 -15 17 -10
25 14 24 45 -2 57 2 57 20 0 11 -3 13 -8 5 -5 -8 -15 -8 -37 2 -20 9 -24 14
-12 14 15 1 17 6 10 24 -4 12 -7 55 -7 95 1 47 -3 72 -10 72 -6 0 -4 5 4 10 9
6 14 21 12 45 -3 28 0 35 14 35 9 0 14 3 10 8 -4 4 -12 7 -18 7 -6 0 -16 8
-21 17 -9 13 -7 22 8 38 22 24 22 29 5 40 -8 5 -10 18 -6 34 4 15 10 25 14 22
9 -6 8 41 -1 51 -9 9 -9 25 1 20 4 -3 8 6 8 19 1 15 -2 21 -10 17 -6 -4 -5 1
3 10 11 14 11 18 -4 23 -12 5 -14 9 -4 15 7 4 14 17 16 28 2 15 -3 21 -17 21
-17 0 -20 -7 -21 -47z"/>
<path d="M6710 5325 c0 -8 7 -15 15 -15 9 0 12 6 9 15 -4 8 -10 15 -15 15 -5
0 -9 -7 -9 -15z"/>
<path d="M468 5293 c12 -2 30 -2 40 0 9 3 -1 5 -23 4 -22 0 -30 -2 -17 -4z"/>
<path d="M529 5293 c-4 -42 -3 -73 4 -73 4 0 7 18 7 40 0 22 -2 40 -5 40 -3 0
-5 -3 -6 -7z"/>
<path d="M2624 5291 c4 -5 0 -12 -6 -14 -10 -4 -10 -6 0 -6 7 -1 11 -5 8 -9
-2 -4 -1 -14 5 -22 7 -13 9 -13 9 1 0 12 12 15 60 14 38 -1 60 2 60 9 0 8 2 8
8 0 11 -16 50 -24 56 -10 3 6 5 2 3 -9 -1 -11 3 -26 7 -34 7 -11 5 -13 -6 -9
-12 5 -14 -1 -11 -33 4 -28 1 -39 -8 -39 -10 0 -10 -3 -2 -11 16 -16 47 -3 39
17 -3 8 -2 13 2 10 12 -7 72 32 72 47 0 21 -20 35 -41 30 -10 -3 -19 -12 -19
-20 0 -8 5 -11 10 -8 6 3 10 1 10 -4 0 -17 -18 -13 -28 7 -18 34 -8 67 24 73
16 4 -31 7 -103 8 -81 1 -133 5 -133 11 0 6 -5 10 -11 10 -5 0 -8 -4 -5 -9z"/>
<path d="M2977 5263 c2 -21 7 -40 10 -43 3 -3 3 7 1 23 -3 15 -1 27 3 27 5 0
9 7 9 15 0 8 -6 15 -14 15 -9 0 -12 -10 -9 -37z"/>
<path d="M5406 5293 c6 -4 10 -16 8 -25 -1 -10 1 -20 5 -23 5 -2 8 8 7 22 -1
14 -8 28 -16 30 -10 3 -11 2 -4 -4z"/>
<path d="M6710 5246 l0 -33 -94 2 c-52 2 -100 6 -107 10 -8 5 -10 4 -5 -3 4
-7 1 -12 -8 -12 -8 0 -18 5 -22 11 -4 8 -9 7 -15 -2 -8 -12 -11 -11 -19 1 -8
12 -10 12 -10 1 0 -10 -3 -11 -13 -2 -10 8 -17 7 -25 -1 -8 -8 -15 -8 -26 1
-11 9 -16 9 -21 0 -6 -8 -10 -7 -16 2 -7 12 -9 12 -9 0 0 -10 -3 -11 -14 -2
-10 9 -16 9 -21 1 -5 -8 -10 -8 -20 0 -10 8 -14 7 -18 -2 -4 -10 -6 -10 -6 0
-1 6 -8 12 -17 12 -8 0 -13 -4 -10 -9 8 -12 -46 -11 -62 2 -10 8 -15 8 -21 -1
-10 -16 -42 -8 -62 16 -22 27 -29 28 -24 2 2 -11 0 -18 -6 -15 -5 4 -9 2 -9
-3 0 -5 -10 -9 -22 -8 -29 3 -64 -9 -60 -19 2 -4 -1 -11 -6 -14 -7 -4 -7 -19
-2 -41 4 -19 9 -32 10 -27 1 4 3 10 5 15 1 4 5 15 9 25 5 9 6 24 2 32 -3 8 -1
15 4 15 6 0 10 -11 10 -24 0 -29 15 -42 24 -21 3 8 11 15 17 15 7 0 21 8 31
17 13 12 21 14 26 6 4 -6 28 -12 54 -14 25 -2 44 -1 42 3 -2 4 0 9 6 13 5 3
10 2 10 -4 0 -6 12 -8 32 -4 20 4 29 3 25 -4 -4 -7 3 -10 17 -9 13 0 22 4 20
7 -2 4 3 9 10 12 8 3 16 2 18 -4 5 -16 47 -18 63 -3 13 14 15 14 15 0 0 -12 6
-13 30 -6 17 5 30 6 30 2 0 -12 125 -1 132 12 6 8 8 8 8 -1 0 -20 136 -18 143
2 4 8 3 16 -2 19 -4 3 -6 19 -5 35 1 17 -2 31 -7 31 -5 0 -9 -15 -9 -34z"/>
<path d="M2610 5204 c8 -10 15 -20 16 -22 1 -2 4 1 7 5 3 5 -4 15 -16 23 -21
12 -21 12 -7 -6z"/>
<path d="M527 5203 c-6 -12 -1 -82 6 -90 4 -3 7 17 7 45 0 49 -4 62 -13 45z"/>
<path d="M3708 5173 c7 -3 12 -26 12 -63 0 -37 -5 -60 -12 -64 -7 -3 11 -4 41
-3 38 1 56 6 59 17 4 12 2 13 -9 3 -7 -7 -23 -13 -36 -13 -21 0 -23 4 -23 59
0 38 4 61 13 64 6 3 -4 5 -23 5 -19 0 -29 -2 -22 -5z"/>
<path d="M4049 5164 c-13 -16 -12 -16 8 -3 18 11 25 11 35 1 11 -11 9 -17 -11
-33 -16 -13 -18 -19 -8 -19 8 0 20 -7 27 -15 18 -22 -6 -48 -37 -40 -13 3 -23
1 -23 -5 0 -13 36 -13 61 0 18 10 26 50 12 64 -4 4 -7 19 -8 34 0 33 -34 42
-56 16z"/>
<path d="M2601 5143 c-1 -32 0 -33 37 -32 l37 1 -32 9 c-21 6 -33 17 -36 32
-3 16 -5 13 -6 -10z"/>
<path d="M4785 5137 c-4 -10 -5 -21 -1 -24 10 -10 18 4 13 24 -4 17 -4 17 -12
0z"/>
<path d="M5250 5137 c0 -12 -8 -17 -26 -17 -16 0 -23 4 -18 11 4 7 2 10 -5 8
-29 -10 -7 -24 40 -27 35 -2 55 1 60 10 7 11 9 11 9 0 0 -7 5 -10 10 -7 6 3
10 10 10 15 0 10 -20 8 -39 -4 -9 -6 -18 -3 -28 9 -12 17 -13 17 -13 2z"/>
<path d="M3850 5119 c-24 -43 7 -91 46 -74 18 8 17 9 -4 12 -12 3 -27 13 -32
24 -10 17 -7 19 25 19 37 0 43 8 23 28 -18 18 -46 14 -58 -9z m45 1 c3 -5 -3
-10 -14 -10 -12 0 -21 5 -21 10 0 6 6 10 14 10 8 0 18 -4 21 -10z"/>
<path d="M3947 5089 c28 -57 42 -61 19 -4 -9 20 -13 41 -10 46 3 5 -3 9 -14 9
-18 0 -18 -3 5 -51z"/>
<path d="M3995 5130 c4 -6 11 -8 16 -5 14 9 11 15 -7 15 -8 0 -12 -5 -9 -10z"/>
<path d="M4761 5124 c0 -11 3 -14 6 -6 3 7 2 16 -1 19 -3 4 -6 -2 -5 -13z"/>
<path d="M5140 5125 c-10 -13 -9 -15 11 -15 17 0 20 3 10 9 -11 7 -11 9 0 14
8 3 9 6 3 6 -6 1 -17 -6 -24 -14z"/>
<path d="M4762 5080 c0 -14 2 -19 5 -12 2 6 2 18 0 25 -3 6 -5 1 -5 -13z"/>
<path d="M4780 5080 c0 -15 6 -19 23 -18 33 3 34 38 1 38 -17 0 -24 -5 -24
-20z"/>
<path d="M5140 5096 c0 -2 7 -6 15 -10 8 -3 15 -1 15 4 0 6 -7 10 -15 10 -8 0
-15 -2 -15 -4z"/>
<path d="M5184 5093 c10 -11 37 -12 30 -2 -3 5 -12 9 -21 9 -9 0 -13 -3 -9 -7z"/>
<path d="M5230 5089 c0 -5 9 -9 20 -9 11 0 20 2 20 4 0 2 -9 6 -20 9 -11 3
-20 1 -20 -4z"/>
<path d="M5417 5088 c4 -7 7 -24 7 -38 -1 -22 -1 -22 3 -2 2 12 9 22 14 22 6
0 4 7 -5 15 -18 18 -30 20 -19 3z"/>
<path d="M5940 5015 l0 -85 -32 -2 c-39 -1 -45 -1 -80 6 -17 4 -32 1 -41 -9
-11 -11 -17 -11 -19 -3 -5 15 -90 17 -100 3 -5 -6 -11 -6 -18 1 -13 13 -70 6
-70 -10 0 -6 -5 -4 -10 4 -8 13 -13 13 -31 2 -11 -8 -18 -9 -14 -3 3 6 -1 11
-10 11 -10 0 -13 -5 -9 -12 5 -7 3 -8 -7 -2 -18 11 -31 12 -45 2 -7 -5 -14 -2
-18 7 -3 9 -10 13 -16 10 -5 -3 -10 -2 -10 3 0 5 -7 9 -15 9 -21 0 -19 -25 3
-30 13 -4 11 -5 -5 -6 -20 -1 -23 4 -24 42 l-1 42 -11 -39 c-7 -21 -12 -78
-11 -127 1 -80 -1 -88 -20 -95 -12 -3 -29 -7 -38 -7 -39 0 -15 -17 25 -18 l42
-1 -32 -9 c-18 -5 -33 -14 -33 -19 0 -14 17 -12 23 3 3 6 6 -1 7 -18 6 -94 14
-152 24 -184 6 -18 5 -22 -5 -15 -12 6 -12 5 0 -9 7 -9 10 -17 5 -17 -4 0 -3
-5 4 -12 7 -7 12 -22 12 -34 0 -13 5 -26 10 -29 7 -4 9 2 6 17 -6 29 -18 148
-21 210 -1 32 1 45 9 41 6 -3 7 -2 3 3 -5 5 -13 9 -19 9 -6 0 -13 10 -15 23
-2 17 1 22 14 20 19 -3 21 8 22 155 1 57 1 57 31 57 17 0 33 -6 35 -13 7 -17
124 -15 135 2 6 10 9 10 12 1 5 -16 179 -15 189 1 5 8 8 8 10 0 2 -6 24 -11
49 -11 25 0 54 0 65 0 11 0 30 5 41 11 20 10 22 20 23 110 1 61 -2 99 -9 99
-6 0 -10 -34 -10 -85z"/>
<path d="M115 5056 c-11 -9 -38 -16 -61 -16 -39 0 -40 -1 -39 -32 0 -18 -4
-36 -10 -40 -5 -4 0 -8 13 -8 13 0 20 4 17 10 -3 6 -3 10 2 11 4 0 16 2 26 4
9 2 17 -3 17 -11 0 -8 5 -14 10 -14 6 0 10 4 10 9 0 5 9 13 21 16 14 5 19 13
16 25 -4 14 0 18 17 15 18 -4 19 -3 5 8 -9 7 -18 18 -20 25 -3 10 -9 9 -24 -2z"/>
<path d="M310 5020 c0 -5 7 -7 15 -4 8 4 15 8 15 10 0 2 -7 4 -15 4 -8 0 -15
-4 -15 -10z"/>
<path d="M2196 5008 c-7 -4 -23 -6 -35 -3 -27 5 -34 -11 -22 -50 l9 -30 1 30
c1 25 5 31 26 33 15 1 42 -5 62 -13 19 -8 43 -15 53 -15 20 0 34 37 17 47 -15
9 -95 10 -111 1z"/>
<path d="M3910 4895 l0 -115 115 0 115 0 0 115 0 115 -115 0 -115 0 0 -115z
m120 -15 c0 -5 -4 -10 -10 -10 -5 0 -10 5 -10 10 0 6 5 10 10 10 6 0 10 -4 10
-10z"/>
<path d="M5236 5002 c-3 -5 1 -9 9 -9 8 0 12 4 9 9 -3 4 -7 8 -9 8 -2 0 -6 -4
-9 -8z"/>
<path d="M2010 4976 c0 -9 7 -15 18 -13 26 4 30 22 5 25 -16 2 -23 -2 -23 -12z"/>
<path d="M2161 4944 c0 -11 3 -14 6 -6 3 7 2 16 -1 19 -3 4 -6 -2 -5 -13z"/>
<path d="M5998 4874 c22 -30 30 -30 30 0 0 18 -6 24 -24 24 -22 0 -23 -1 -6
-24z"/>
<path d="M2030 4856 c0 -35 12 -38 37 -12 25 26 21 36 -14 36 -18 0 -23 -6
-23 -24z"/>
<path d="M2130 4871 c0 -6 4 -12 8 -15 5 -3 9 1 9 9 0 8 -4 15 -9 15 -4 0 -8
-4 -8 -9z"/>
<path d="M2160 4864 c0 -9 5 -14 12 -12 18 6 21 28 4 28 -9 0 -16 -7 -16 -16z"/>
<path d="M4780 4780 c0 -23 4 -30 20 -30 11 0 20 5 20 10 0 6 -9 19 -20 30
l-20 20 0 -30z"/>
<path d="M4746 4784 c-10 -25 -7 -34 9 -34 9 0 15 9 15 25 0 28 -15 34 -24 9z"/>
<path d="M696 4752 c-3 -5 -17 -7 -31 -4 -14 2 -25 1 -25 -3 0 -17 37 -34 73
-35 30 0 37 3 37 20 0 11 -4 20 -9 20 -5 0 -16 3 -24 6 -8 3 -18 1 -21 -4z"/>
<path d="M7945 4742 c2 -9 4 -20 4 -24 1 -11 41 -10 41 1 0 5 -11 16 -24 24
-22 15 -24 15 -21 -1z"/>
<path d="M760 4736 c0 -8 5 -18 10 -21 6 -3 10 1 10 9 0 8 -4 18 -10 21 -5 3
-10 -1 -10 -9z"/>
<path d="M250 4720 c0 -5 5 -10 11 -10 5 0 7 5 4 10 -3 6 -8 10 -11 10 -2 0
-4 -4 -4 -10z"/>
<path d="M500 4720 c0 -5 5 -10 10 -10 6 0 10 5 10 10 0 6 -4 10 -10 10 -5 0
-10 -4 -10 -10z"/>
<path d="M5140 4720 c0 -5 5 -10 10 -10 6 0 10 5 10 10 0 6 -4 10 -10 10 -5 0
-10 -4 -10 -10z"/>
<path d="M5180 4718 c0 -4 7 -8 15 -8 8 0 15 4 15 8 0 5 -7 9 -15 9 -8 0 -15
-4 -15 -9z"/>
<path d="M8000 4720 c0 -5 7 -10 16 -10 8 0 12 5 9 10 -3 6 -10 10 -16 10 -5
0 -9 -4 -9 -10z"/>
<path d="M232 4676 l-23 -24 28 7 c15 4 29 15 31 24 5 24 -9 21 -36 -7z"/>
<path d="M508 4693 c7 -3 16 -2 19 1 4 3 -2 6 -13 5 -11 0 -14 -3 -6 -6z"/>
<path d="M677 4685 c16 -11 28 -13 47 -5 38 14 32 20 -21 20 -45 0 -46 -1 -26
-15z"/>
<path d="M5185 4691 c-12 -11 -3 -21 17 -18 28 5 36 26 8 24 -11 -1 -23 -3
-25 -6z"/>
<path d="M5243 4684 c0 -8 4 -14 9 -14 4 0 8 6 8 13 0 8 4 7 11 -3 8 -12 10
-12 7 -1 -5 19 -35 23 -35 5z"/>
<path d="M7950 4690 c0 -5 6 -10 14 -10 8 0 17 -6 19 -12 3 -7 6 -3 6 10 1 16
-5 22 -19 22 -11 0 -20 -4 -20 -10z"/>
<path d="M8001 4684 c0 -11 3 -14 6 -6 3 7 2 16 -1 19 -3 4 -6 -2 -5 -13z"/>
<path d="M5389 4656 c9 -10 10 -16 2 -16 -19 0 -12 -17 10 -23 17 -5 20 -1 17
21 -2 17 -10 28 -23 31 -17 3 -18 1 -6 -13z"/>
<path d="M4735 4562 c-3 -3 -5 -16 -5 -29 0 -16 6 -23 20 -23 15 0 20 7 20 28
0 26 -20 39 -35 24z"/>
<path d="M4780 4539 c0 -18 3 -29 7 -25 11 11 13 45 3 51 -6 4 -10 -7 -10 -26z"/>
<path d="M2775 4511 c-3 -5 -1 -12 4 -16 11 -6 8 -95 -3 -114 -4 -7 0 -11 11
-11 16 0 18 8 15 75 -3 69 -12 90 -27 66z"/>
<path d="M3150 4510 c0 -5 5 -10 10 -10 6 0 10 5 10 10 0 6 -4 10 -10 10 -5 0
-10 -4 -10 -10z"/>
<path d="M3195 4510 c-3 -5 -1 -10 5 -10 7 0 10 -20 8 -56 -2 -45 1 -59 15
-68 34 -22 73 27 56 72 -5 12 -15 22 -23 22 -13 0 -13 -4 2 -30 16 -27 16 -30
0 -46 -25 -25 -38 -8 -37 49 1 29 1 58 0 65 -1 14 -17 16 -26 2z"/>
<path d="M2440 4501 c0 -5 9 -7 21 -4 20 6 21 3 17 -61 -3 -65 -3 -66 22 -65
14 0 19 3 13 6 -9 3 -13 26 -13 65 0 55 2 60 20 55 11 -3 20 -1 20 4 0 5 -22
9 -50 9 -27 0 -50 -4 -50 -9z"/>
<path d="M2965 4498 c-27 -15 -35 -28 -35 -60 0 -36 33 -68 68 -67 l27 1 -29
8 c-34 11 -46 25 -46 61 0 27 27 59 50 59 7 0 22 -7 32 -17 17 -15 18 -15 18
3 0 14 -8 20 -33 21 -17 1 -41 -3 -52 -9z"/>
<path d="M2566 4455 c-32 -33 -6 -89 38 -83 26 4 45 52 30 76 -15 23 -48 27
-68 7z m49 -35 c0 -28 -4 -35 -20 -35 -13 0 -21 8 -23 23 -5 34 5 54 25 50 13
-2 18 -13 18 -38z"/>
<path d="M2676 4454 c-9 -8 -16 -22 -16 -30 0 -53 61 -75 82 -29 24 53 -27 98
-66 59z m49 -34 c0 -44 -31 -56 -41 -16 -8 35 2 58 23 54 13 -2 18 -13 18 -38z"/>
<path d="M3077 4429 c4 -29 2 -44 -8 -50 -10 -6 -5 -9 16 -8 17 0 25 3 19 5
-8 3 -10 21 -7 49 3 35 1 45 -10 45 -12 0 -14 -9 -10 -41z"/>
<path d="M3110 4460 c0 -5 5 -10 10 -10 6 0 10 5 10 10 0 6 -4 10 -10 10 -5 0
-10 -4 -10 -10z"/>
<path d="M3149 4468 c0 -2 -1 -24 -2 -51 -2 -44 -1 -47 23 -46 14 0 19 3 13 6
-8 3 -13 23 -13 49 0 24 -4 44 -10 44 -5 0 -10 -1 -11 -2z"/>
<path d="M2838 4333 c18 -2 45 -2 60 0 15 2 0 4 -33 4 -33 0 -45 -2 -27 -4z"/>
<path d="M7906 4326 c7 -19 30 -21 40 -4 4 7 3 8 -5 4 -6 -4 -19 -2 -27 5 -12
10 -13 9 -8 -5z"/>
<path d="M3080 4215 l0 -115 115 0 115 0 0 115 0 115 -115 0 -115 0 0 -115z
m120 -5 c0 -5 -4 -10 -10 -10 -5 0 -10 5 -10 10 0 6 5 10 10 10 6 0 10 -4 10
-10z"/>
<path d="M5080 4290 c0 -13 43 -20 57 -8 9 7 13 7 13 -1 0 -7 5 -9 10 -6 23
14 7 24 -35 23 -25 0 -45 -4 -45 -8z"/>
<path d="M5180 4283 c0 -12 3 -14 8 -7 4 7 18 14 32 17 21 4 20 4 -7 6 -25 1
-33 -3 -33 -16z"/>
<path d="M5450 4285 c0 -6 6 -12 13 -12 8 0 14 6 14 12 0 6 -6 12 -14 12 -7 0
-13 -6 -13 -12z"/>
<path d="M7503 4284 c-7 -18 15 -36 35 -29 6 2 12 0 12 -5 0 -6 7 -10 16 -10
10 0 14 7 12 23 -2 12 -9 21 -16 19 -7 -1 -22 2 -33 8 -15 9 -21 7 -26 -6z"/>
<path d="M7875 4291 c-3 -5 -1 -12 5 -16 6 -4 9 -41 8 -91 -1 -69 -4 -84 -17
-84 -13 0 -13 -2 -2 -9 22 -14 1 -18 -115 -20 -96 -2 -112 0 -118 14 -3 10
-12 15 -21 11 -8 -3 -15 -1 -15 4 0 6 7 10 15 10 13 0 15 14 14 80 -1 68 -5
82 -21 91 -18 10 -18 5 -16 -118 l3 -128 88 0 c62 0 90 4 96 14 6 9 10 10 12
2 6 -16 103 -18 122 -3 16 14 12 52 -6 52 -24 0 4 12 39 16 21 3 41 10 45 15
5 8 8 8 11 -1 2 -7 13 -9 31 -5 26 7 27 9 22 63 -5 57 -24 90 -44 78 -18 -12
-13 -39 5 -32 13 5 14 4 6 -7 -10 -11 -18 -38 -21 -69 -1 -3 -9 -5 -18 -4 -18
3 -34 35 -25 50 3 5 0 6 -6 2 -6 -3 -14 0 -19 8 -4 8 -12 15 -18 15 -5 1 -10
12 -10 26 0 14 5 24 10 23 6 -2 9 -6 8 -10 -2 -4 5 -4 14 -1 11 4 13 8 5 11
-7 2 -10 8 -6 13 3 5 -8 9 -25 9 -16 0 -32 -4 -36 -9z m39 -93 c-5 -8 -2 -9 9
-5 9 3 19 1 23 -5 4 -7 3 -8 -4 -4 -7 4 -12 2 -12 -3 0 -6 4 -11 9 -11 5 0 11
-6 14 -13 3 -9 -2 -13 -16 -12 -12 1 -22 8 -22 16 0 8 -4 19 -7 25 -4 6 -5 14
-1 18 10 10 15 7 7 -6z"/>
<path d="M3550 4270 c-43 -43 -11 -121 48 -119 20 1 22 2 7 6 -51 13 -73 73
-39 107 20 21 43 20 66 -1 16 -14 18 -14 18 -1 0 31 -71 37 -100 8z"/>
<path d="M3870 4280 c-10 -6 -11 -10 -2 -10 8 0 12 -18 12 -54 0 -34 -5 -56
-12 -59 -7 -3 3 -6 22 -6 26 -1 31 2 20 9 -11 6 -15 27 -15 70 0 63 -1 65 -25
50z"/>
<path d="M166 4267 c3 -9 2 -17 -2 -18 -53 -5 -61 -4 -57 8 7 18 -15 16 -34
-3 -14 -13 -14 -17 -2 -25 8 -5 22 -9 31 -9 15 0 16 -4 6 -32 -6 -18 -15 -38
-20 -45 -6 -8 -3 -15 11 -22 30 -16 44 -14 36 7 -26 62 -2 124 33 85 9 -10 25
-17 34 -15 14 3 16 -1 11 -14 -4 -11 -3 -15 5 -10 6 3 13 2 16 -3 4 -5 2 -12
-3 -16 -6 -3 -7 -13 -4 -22 5 -12 2 -15 -10 -10 -9 3 -17 2 -17 -3 0 -6 8 -10
18 -11 9 -1 0 -6 -21 -11 -41 -11 -57 -32 -38 -51 8 -8 11 -8 11 1 0 7 13 12
30 12 29 0 75 32 63 44 -3 3 1 8 10 12 9 3 13 12 10 20 -3 8 0 14 6 14 7 0 10
14 7 38 -3 20 -5 40 -5 43 -1 4 -22 9 -48 13 -25 3 -55 14 -65 23 -18 16 -18
16 -12 0z"/>
<path d="M447 4269 c-26 -15 -21 -39 8 -39 18 0 25 5 25 19 0 25 -11 32 -33
20z"/>
<path d="M3687 4244 c-3 -4 -3 -14 1 -23 9 -20 9 -42 -1 -58 -5 -8 10 -11 53
-12 33 0 65 -3 70 -6 5 -3 7 0 4 8 -6 16 -72 28 -80 15 -13 -21 -24 -4 -24 37
0 42 -7 54 -23 39z"/>
<path d="M3740 4235 c-10 -12 -11 -21 -3 -33 15 -24 57 -22 62 3 2 11 8 23 15
27 7 5 6 8 -4 8 -8 0 -24 3 -36 6 -12 3 -26 -1 -34 -11z m45 -20 c0 -28 -29
-25 -33 3 -3 19 0 23 15 20 10 -2 18 -12 18 -23z"/>
<path d="M4727 4230 c-16 -15 -17 -21 -5 -39 7 -12 21 -21 31 -21 15 0 18 7
15 37 -3 42 -16 49 -41 23z"/>
<path d="M5042 4238 c-16 -16 -15 -55 1 -61 21 -8 36 6 32 28 -2 11 -4 26 -4
33 -1 15 -13 16 -29 0z"/>
<path d="M4780 4193 c0 -22 2 -25 10 -13 13 20 13 40 0 40 -5 0 -10 -12 -10
-27z"/>
<path d="M3730 4132 c0 -7 -7 -12 -15 -12 -12 0 -15 -19 -15 -115 l0 -115 115
0 115 0 0 115 0 115 -88 0 c-55 0 -92 4 -100 12 -9 9 -12 9 -12 0z m90 -142
c0 -5 -4 -10 -10 -10 -5 0 -10 5 -10 10 0 6 5 10 10 10 6 0 10 -4 10 -10z"/>
<path d="M130 4084 c0 -14 -3 -14 -15 -4 -12 10 -15 10 -15 -4 0 -9 6 -16 14
-16 8 0 17 -8 19 -17 3 -10 5 -1 6 20 0 20 -1 37 -4 37 -3 0 -5 -7 -5 -16z"/>
<path d="M5436 3962 c-3 -6 1 -15 8 -21 8 -7 17 -8 20 -3 3 6 -1 15 -8 21 -8
7 -17 8 -20 3z"/>
<path d="M5660 3925 c0 -8 4 -15 9 -15 5 0 11 7 15 15 3 9 0 15 -9 15 -8 0
-15 -7 -15 -15z"/>
<path d="M5435 3910 c-3 -5 -1 -10 4 -10 6 0 11 5 11 10 0 6 -2 10 -4 10 -3 0
-8 -4 -11 -10z"/>
<path d="M4983 3800 c0 -46 2 -50 23 -50 26 0 30 10 12 28 -7 7 -12 24 -13 39
0 14 -5 28 -11 30 -7 2 -11 -14 -11 -47z"/>
<path d="M4820 3815 c0 -9 9 -15 25 -15 19 0 25 -5 25 -20 0 -12 11 -31 25
-43 21 -19 24 -31 25 -92 2 -126 3 -125 -25 -125 -37 0 -30 -20 8 -21 29 -1
28 -2 -10 -8 -50 -9 -61 -17 -44 -34 10 -9 14 -8 22 6 11 20 30 23 26 5 -3
-20 53 -18 65 2 7 10 19 15 29 13 11 -3 17 -9 14 -13 -13 -21 19 -21 35 0 12
16 23 21 38 15 12 -3 22 -11 22 -16 0 -5 15 -9 34 -9 24 0 36 5 39 18 4 15 5
15 6 0 1 -19 47 -27 99 -17 17 4 32 3 32 -1 0 -5 8 -7 18 -5 9 2 22 4 29 4 6
1 14 9 16 19 4 13 5 13 6 2 1 -12 11 -15 44 -13 103 5 124 21 122 93 -1 19 4
38 9 42 8 5 7 8 -1 8 -7 0 -10 13 -7 37 3 23 0 39 -8 45 -8 4 -8 8 -2 8 12 0
12 28 1 47 -4 6 -15 10 -25 8 -9 -2 -20 -4 -24 -4 -5 -1 -7 -7 -5 -13 1 -10
-26 -13 -110 -14 -85 -1 -113 1 -113 11 0 7 -11 13 -25 13 -19 0 -24 -5 -21
-20 2 -19 11 -20 143 -20 77 0 146 -4 154 -9 10 -6 10 -9 2 -9 -7 0 -11 -9
-10 -21 2 -12 1 -41 -3 -65 -4 -24 -3 -41 2 -38 11 7 10 -7 -1 -25 -6 -9 -28
-15 -61 -16 -33 -1 -55 -7 -61 -16 -7 -11 -9 -10 -10 6 0 11 -3 14 -6 7 -2 -6
-9 -10 -14 -6 -5 3 -9 0 -9 -6 0 -6 -4 -9 -9 -6 -5 3 -26 8 -47 12 -22 3 -43
10 -49 15 -7 7 -5 8 5 5 12 -5 15 7 17 72 2 63 0 79 -12 79 -8 0 -12 -4 -9 -8
2 -4 0 -26 -5 -48 -7 -31 -5 -43 5 -52 11 -9 11 -13 -1 -26 -8 -8 -15 -19 -15
-24 0 -5 -9 -9 -20 -9 -11 0 -20 -5 -20 -12 0 -7 -7 -3 -17 8 -16 20 -17 20
-55 2 -35 -17 -40 -17 -61 -3 -12 8 -21 18 -19 20 7 14 0 16 -15 4 -13 -11
-15 -11 -9 -1 11 18 -14 78 -25 60 -6 -8 -9 -2 -9 20 0 17 -4 32 -10 32 -5 0
-10 9 -10 20 0 11 -5 20 -12 20 -6 0 -2 8 9 18 14 12 20 31 22 70 1 31 -3 52
-9 52 -6 0 -8 -5 -4 -12 5 -7 3 -8 -6 -3 -7 4 -39 9 -71 11 -47 3 -59 1 -59
-11z m171 -292 c8 -9 9 -14 2 -10 -6 4 -14 1 -16 -5 -3 -7 -6 -3 -6 10 -1 26
2 27 20 5z"/>
<path d="M2396 3666 c3 -9 10 -13 15 -10 5 3 9 1 9 -5 0 -6 7 -8 15 -5 8 4 15
1 15 -5 0 -6 9 -11 20 -11 11 0 20 -5 20 -11 0 -5 5 -7 10 -4 15 9 3 24 -34
39 -64 27 -76 29 -70 12z"/>
<path d="M4175 3521 c-3 -5 -1 -12 3 -15 8 -5 7 -68 -2 -108 -3 -12 2 -18 12
-18 15 0 17 10 14 75 -3 69 -12 90 -27 66z"/>
<path d="M4028 3513 c7 -3 12 -26 12 -63 0 -37 -5 -60 -12 -63 -7 -3 10 -6 39
-6 68 -1 103 29 69 61 -10 9 -10 17 -3 30 19 29 -8 48 -67 47 -28 0 -45 -3
-38 -6z m87 -28 c0 -14 -8 -21 -27 -23 -24 -3 -28 0 -28 23 0 23 4 26 28 23
19 -2 27 -9 27 -23z m3 -47 c17 -17 -4 -48 -33 -48 -21 0 -25 5 -25 30 0 25 4
30 23 30 13 0 28 -5 35 -12z"/>
<path d="M4342 3508 c-17 -17 -15 -33 3 -18 32 26 63 -18 33 -48 -7 -7 -8 -12
-4 -12 14 0 35 34 36 56 0 32 -44 46 -68 22z"/>
<path d="M4246 3465 c-32 -33 -9 -90 34 -83 30 4 50 50 34 76 -15 23 -48 27
-68 7z m50 -20 c8 -31 -1 -55 -20 -55 -17 0 -31 42 -22 65 9 24 35 17 42 -10z"/>
<path d="M5317 3410 c3 -11 9 -23 14 -26 11 -6 11 -35 1 -52 -11 -16 -75 5
-69 23 3 6 1 18 -3 26 -7 11 -10 10 -16 -4 -3 -9 -12 -17 -20 -17 -19 0 -18
-19 1 -26 8 -4 15 -12 15 -20 0 -9 12 -14 33 -15 l32 -1 -30 -8 c-32 -7 -23
-15 26 -22 23 -4 54 14 43 25 -2 2 2 10 11 17 20 16 20 84 -1 104 -22 23 -43
20 -37 -4z"/>
<path d="M4344 3399 c-18 -20 -18 -20 26 -17 24 2 45 8 47 14 2 7 -8 9 -28 6
-22 -3 -30 -1 -25 7 11 18 1 13 -20 -10z"/>
<path d="M4210 3235 l0 -115 115 0 115 0 0 115 0 115 -115 0 -115 0 0 -115z
m120 -5 c0 -5 -4 -10 -10 -10 -5 0 -10 5 -10 10 0 6 5 10 10 10 6 0 10 -4 10
-10z"/>
<path d="M2274 2822 c-16 -10 -34 -48 -34 -70 0 -19 36 -59 45 -50 3 3 1 17
-4 31 -11 27 0 44 19 32 6 -3 10 1 10 11 0 11 6 15 19 11 13 -3 21 1 24 12 3
11 5 9 6 -6 0 -13 6 -23 11 -23 6 0 9 -3 9 -7 -5 -31 3 -64 14 -60 14 4 17 52
6 85 -7 17 -5 22 9 23 21 2 -64 17 -98 18 -14 0 -30 -3 -36 -7z"/>
<path d="M2493 2703 c9 -2 23 -2 30 0 6 3 -1 5 -18 5 -16 0 -22 -2 -12 -5z"/>
<path d="M2444 2643 l1 -47 -185 1 c-117 0 -187 -3 -192 -10 -8 -12 12 -47 28
-47 7 0 10 -89 8 -297 -1 -164 -3 -305 -3 -314 -1 -9 -11 -20 -23 -23 -22 -7
-22 -7 -3 -16 16 -7 17 -9 3 -9 -14 -1 -16 -12 -12 -92 2 -50 6 -95 9 -99 3
-5 1 -11 -5 -15 -7 -4 -7 -12 0 -26 8 -13 7 -19 0 -19 -6 0 -9 -4 -5 -9 3 -5
0 -13 -7 -17 -8 -5 -5 -10 9 -15 20 -7 20 -14 21 -541 1 -293 2 -542 3 -553
l0 -20 9 20 c5 11 9 14 9 8 1 -7 5 -13 10 -13 8 0 8 21 1 40 -3 6 -3 1 5 83 6
58 5 67 -9 67 -13 0 -15 4 -8 16 5 9 8 26 5 38 -3 20 -3 20 5 1 5 -11 7 -27 5
-35 -4 -12 -3 -12 5 -2 12 17 7 65 -7 70 -6 2 -11 8 -11 13 0 6 5 7 12 3 8 -5
9 1 5 22 l-5 29 149 0 149 0 2 -230 3 -230 2 228 c3 224 4 227 23 217 12 -6
18 -14 16 -18 -3 -5 -1 -14 5 -22 6 -11 9 -2 9 28 0 23 -5 42 -11 42 -5 0 -7
5 -4 10 3 6 -4 14 -16 18 l-23 9 22 5 c19 5 21 10 13 31 -10 26 -9 52 2 63 15
15 -6 94 -25 94 -5 0 -8 4 -8 10 0 5 6 7 13 5 9 -4 11 17 9 90 -2 64 -7 95
-15 95 -9 0 -9 2 0 8 11 7 17 80 11 144 -2 25 -28 32 -28 7 0 -12 -4 -17 -11
-13 -8 5 -8 1 0 -14 6 -11 11 -40 11 -64 0 -42 -1 -42 -14 -18 -9 18 -10 29
-2 39 8 11 8 13 -2 7 -9 -5 -13 -3 -12 5 3 23 -12 59 -21 53 -16 -9 -10 -34 9
-35 14 0 14 -2 2 -7 -8 -4 -14 -16 -14 -27 1 -11 2 -33 3 -49 1 -25 4 -28 26
-23 16 3 24 0 22 -7 -2 -6 -14 -11 -26 -10 -12 0 -20 -4 -18 -10 2 -6 15 -10
28 -9 l24 3 -24 -10 c-19 -8 -21 -13 -11 -25 7 -8 17 -12 24 -8 8 4 8 2 -1 -7
-14 -15 -31 -6 -43 24 -8 18 -9 17 -6 -9 1 -16 8 -31 14 -31 7 -1 19 -2 27 -3
17 -1 22 -61 4 -61 -5 0 -8 3 -5 8 6 10 -22 47 -30 40 -3 -4 0 -16 6 -28 14
-26 5 -63 -10 -40 -8 13 -10 12 -10 -2 0 -20 11 -23 26 -9 5 6 14 4 22 -5 8
-9 9 -14 2 -14 -6 0 -9 -4 -5 -9 3 -5 1 -12 -5 -16 -5 -3 -10 1 -10 9 0 9 -5
16 -11 16 -6 0 -8 -8 -5 -17 2 -10 7 -37 11 -60 4 -23 13 -47 21 -54 19 -15
18 -43 -1 -36 -8 4 -17 1 -21 -6 -4 -7 -4 -9 1 -5 10 10 35 -10 35 -27 0 -7
-7 -15 -14 -18 -11 -4 -13 -1 -10 11 5 15 4 15 -9 -1 -17 -20 -96 -24 -115 -5
-9 9 -12 9 -12 -1 0 -7 -5 -9 -12 -4 -19 11 -39 13 -32 2 3 -5 -2 -9 -11 -9
-9 0 -13 4 -10 10 4 6 -1 7 -11 3 -13 -5 -15 -3 -10 8 4 8 0 5 -8 -5 -13 -17
-18 -18 -29 -6 -10 10 -9 11 2 5 9 -5 12 -4 7 3 -11 18 -34 14 -39 -5 -3 -10
-5 -2 -5 17 0 19 2 29 5 23 8 -22 19 -14 21 17 1 16 6 40 12 54 7 18 5 26 -6
30 -19 7 -18 26 1 26 16 0 19 9 9 34 -7 19 -30 21 -37 4 -3 -8 -6 -6 -6 5 -1
9 3 17 9 17 6 0 9 33 9 80 -1 52 4 86 12 96 7 8 8 14 3 13 -26 -5 -35 1 -22
15 8 8 15 10 19 4 4 -6 6 15 5 45 -1 30 -7 61 -13 69 -8 9 -9 18 -2 28 8 12 9
11 7 -4 -2 -10 3 -21 9 -23 18 -7 -4 54 -23 61 -23 9 -16 33 11 40 28 7 25 26
-3 26 -15 0 -17 17 -18 158 0 86 3 141 7 122 l6 -35 2 43 c1 33 5 42 19 43 14
0 14 2 -3 9 -12 5 51 9 163 9 l183 1 -2 95 c-1 63 -5 95 -13 95 -8 0 -8 2 1 8
13 9 16 169 2 194 -5 9 -5 19 -1 22 7 4 8 161 2 161 -1 0 -3 26 -4 58 l-2 57
38 0 c36 0 38 -1 38 -33 0 -18 5 -38 12 -45 8 -8 8 -12 1 -12 -7 0 -10 -23 -7
-67 2 -38 3 -108 3 -158 0 -49 0 -100 0 -113 0 -13 -3 -20 -9 -17 -5 3 -3 -6
4 -19 9 -17 11 -41 6 -71 -4 -25 -4 -45 -1 -45 3 0 6 -82 6 -183 0 -138 4
-181 13 -180 7 2 12 -4 12 -12 0 -15 19 -22 21 -7 0 4 2 16 4 28 3 14 -3 25
-18 32 -12 6 -16 11 -9 11 9 1 12 27 12 95 0 66 -4 96 -12 99 -10 4 -10 6 0 6
16 1 17 191 1 191 -8 0 -8 4 -1 13 14 17 13 197 -2 197 -7 0 -7 3 1 8 8 5 10
35 7 97 -5 109 -5 90 0 203 5 91 -9 132 -17 50 l-4 -43 -1 43 -2 42 -58 0 -58
0 0 -47z m96 -18 c0 -33 -2 -35 -34 -35 -29 0 -33 3 -31 23 1 12 3 28 4 35 0
6 14 12 31 12 28 0 30 -3 30 -35z m-282 -63 c62 -2 92 1 92 8 0 7 7 5 15 -4 9
-8 22 -13 30 -10 9 4 15 0 15 -7 0 -10 3 -10 12 -1 20 20 27 14 26 -23 -1 -28
-5 -35 -22 -35 -20 -1 -20 -1 -3 -14 25 -20 36 -115 14 -128 -17 -9 -13 -37 7
-50 8 -5 8 -8 0 -8 -8 0 -9 -13 -4 -42 6 -29 4 -48 -3 -57 -9 -11 -9 -15 1
-18 8 -3 12 -35 12 -114 0 -80 -3 -109 -12 -110 -10 0 -10 -2 0 -6 13 -5 17
-32 5 -34 -5 -1 -54 -3 -110 -4 -80 -1 -101 1 -93 10 8 9 6 14 -5 19 -9 3 -15
0 -15 -9 0 -8 -10 -16 -22 -16 -13 -1 -33 -3 -45 -4 -16 -2 -23 3 -24 16 -1
11 -2 25 -3 32 -1 6 0 16 3 21 8 16 7 55 -1 50 -4 -3 -8 20 -8 50 0 35 4 56
11 56 8 0 7 6 -2 17 -9 10 -10 18 -3 20 5 2 9 18 7 36 -9 91 -10 124 -1 140 5
9 5 17 1 17 -4 0 -9 43 -10 95 -1 75 1 98 14 111 9 8 19 12 22 7 3 -4 48 -9
99 -11z m147 -1532 c-3 -5 -1 -10 4 -10 6 0 11 -11 11 -25 0 -14 -4 -25 -8
-25 -5 0 -9 6 -9 13 0 6 -3 22 -7 35 -5 14 -3 22 4 22 6 0 8 -4 5 -10z m-298
-102 c-3 -8 -6 -5 -6 6 -1 11 2 17 5 13 3 -3 4 -12 1 -19z"/>
<path d="M2240 1977 c0 -8 6 -14 14 -14 8 0 12 6 9 14 -3 7 -9 13 -14 13 -5 0
-9 -6 -9 -13z"/>
<path d="M5293 2388 c-18 -6 -33 -14 -33 -18 0 -4 -12 -11 -26 -14 -17 -5 -24
-12 -20 -21 3 -8 -3 -19 -12 -24 -10 -6 -12 -11 -4 -11 9 0 9 -6 -3 -23 -14
-23 -14 -26 15 -58 l30 -34 1 30 c0 17 3 24 6 18 6 -15 33 -17 33 -3 0 6 7 10
15 10 12 0 10 -8 -10 -37 -29 -43 -31 -53 -10 -53 8 0 15 5 15 10 0 6 9 10 19
10 24 0 30 8 33 46 1 21 7 30 20 30 10 0 18 -6 18 -14 0 -7 5 -10 10 -7 6 3
10 1 10 -4 0 -6 -4 -11 -8 -11 -4 0 -8 -9 -8 -19 0 -11 4 -17 8 -15 9 6 10 -7
9 -99 -1 -66 0 -68 21 -65 30 4 39 64 11 71 -15 4 -15 5 -1 6 16 1 17 9 5 76
-2 11 -8 28 -12 39 -11 25 9 36 70 36 53 0 69 6 78 30 4 11 6 10 6 -4 1 -17 7
-18 59 -12 l57 6 3 -52 c2 -29 4 -66 6 -83 2 -16 4 -38 5 -47 1 -10 8 -18 17
-18 13 0 14 3 5 13 -6 8 -8 17 -4 20 9 10 11 197 1 197 -4 0 -10 11 -14 23 -4
19 -11 23 -30 19 -13 -2 -24 -8 -24 -13 0 -5 -17 -9 -37 -10 -29 0 -33 -2 -18
-8 25 -10 -158 -22 -237 -16 -32 3 -58 0 -58 -5 0 -5 21 -11 48 -13 l47 -3
-55 -2 c-31 -1 -60 -6 -66 -12 -5 -5 -15 -6 -23 0 -12 7 -12 11 -2 24 10 12 8
15 -16 19 l-28 4 28 2 c29 1 61 24 50 35 -4 3 -1 6 6 6 7 0 15 -9 18 -20 6
-24 22 -26 38 -3 10 14 9 23 -4 50 -9 18 -18 32 -21 32 -3 -1 -20 -6 -37 -11z
m32 -188 c3 -5 2 -10 -4 -10 -5 0 -13 5 -16 10 -3 6 -2 10 4 10 5 0 13 -4 16
-10z"/>
<path d="M5523 2303 c9 -2 25 -2 35 0 9 3 1 5 -18 5 -19 0 -27 -2 -17 -5z"/>
<path d="M3192 2188 c6 -18 28 -21 28 -4 0 9 -7 16 -16 16 -9 0 -14 -5 -12
-12z"/>
<path d="M5620 2076 c0 -2 8 -10 18 -17 15 -13 16 -12 3 4 -13 16 -21 21 -21
13z"/>
<path d="M8590 2061 c0 -4 12 -14 26 -21 14 -8 35 -27 46 -42 10 -15 25 -28
32 -28 7 0 30 -11 50 -25 21 -14 42 -23 47 -20 5 4 9 2 9 -3 0 -5 14 -15 30
-22 17 -7 28 -15 25 -18 -3 -3 4 -11 16 -18 33 -17 31 -40 -4 -76 -17 -18 -30
-36 -29 -40 1 -5 -2 -8 -8 -8 -5 0 -10 -11 -10 -25 0 -22 4 -25 33 -25 21 0
27 3 19 9 -11 7 -11 10 0 22 7 8 26 33 42 56 24 36 31 41 47 32 11 -5 24 -7
29 -4 6 3 10 2 10 -4 0 -16 151 -111 176 -111 13 0 24 -7 27 -17 4 -15 5 -15
6 2 1 15 -20 33 -80 70 -81 50 -146 89 -206 121 -18 9 -30 21 -28 25 3 3 -2
12 -10 19 -8 7 -15 9 -15 5 0 -4 -11 0 -25 9 -13 9 -31 16 -40 16 -9 0 -18 7
-21 15 -4 8 -10 13 -14 10 -4 -3 -13 2 -20 10 -7 8 -19 15 -27 15 -8 0 -11 5
-8 10 3 6 -2 10 -12 10 -11 0 -40 13 -66 30 -26 16 -47 26 -47 21z"/>
<path d="M5535 2039 c-4 -6 -5 -12 -2 -15 2 -3 7 2 10 11 7 17 1 20 -8 4z"/>
<path d="M4208 2034 c-3 -3 -3 -19 1 -37 9 -41 8 -78 -2 -94 -6 -9 -2 -13 10
-13 16 0 18 8 15 75 -3 68 -9 85 -24 69z"/>
<path d="M3690 2010 c-55 -55 16 -153 80 -110 11 8 8 9 -13 4 -36 -8 -67 18
-67 57 0 54 55 78 84 37 16 -22 16 -22 16 -1 0 36 -68 45 -100 13z"/>
<path d="M3815 1979 c-4 -6 -4 -13 0 -17 4 -4 10 -1 12 6 5 13 33 17 33 5 0
-4 -12 -17 -27 -29 -17 -14 -24 -26 -20 -37 10 -26 25 -20 20 7 -3 15 1 25 12
30 13 5 16 1 13 -21 -2 -14 2 -28 8 -30 9 -3 10 15 5 90 -1 11 -49 8 -56 -4z"/>
<path d="M3919 1984 c-1 -5 0 -22 1 -37 1 -15 -4 -35 -10 -43 -10 -11 -9 -14
6 -14 16 0 19 7 18 45 -1 40 -12 75 -15 49z"/>
<path d="M3959 1981 c9 -6 12 -22 9 -50 -3 -33 0 -41 13 -41 12 0 15 7 12 28
-10 62 -14 72 -31 72 -13 0 -14 -2 -3 -9z"/>
<path d="M4021 1976 c-16 -20 -10 -66 10 -79 10 -6 24 -7 35 -2 18 8 18 9 -3
12 -30 6 -46 28 -38 53 7 22 31 27 38 8 2 -7 8 -10 12 -6 11 10 -4 28 -24 28
-10 0 -24 -6 -30 -14z"/>
<path d="M4156 1975 c19 -14 19 -14 -3 -15 -12 0 -23 6 -26 13 -2 6 -8 0 -12
-15 -13 -48 14 -79 53 -63 15 7 13 9 -8 14 -14 4 -26 15 -28 24 -3 13 4 17 28
17 28 0 30 2 20 20 -6 11 -18 20 -27 20 -14 0 -14 -2 3 -15z"/>
<path d="M2168 1873 c6 -2 18 -2 25 0 6 3 1 5 -13 5 -14 0 -19 -2 -12 -5z"/>
<path d="M2438 1873 c7 -3 16 -2 19 1 4 3 -2 6 -13 5 -11 0 -14 -3 -6 -6z"/>
<path d="M4040 1745 l0 -115 115 0 115 0 0 115 0 115 -115 0 -115 0 0 -115z
m110 -15 c0 -5 -4 -10 -10 -10 -5 0 -10 5 -10 10 0 6 5 10 10 10 6 0 10 -4 10
-10z"/>
<path d="M5018 1709 c-18 -18 -17 -19 32 -19 29 0 50 5 50 11 0 5 -4 8 -9 5
-5 -3 -11 1 -15 9 -7 20 -37 17 -58 -6z"/>
<path d="M6635 1718 c-10 -31 -21 -214 -14 -223 5 -5 9 -16 9 -25 0 -13 -1
-13 -10 0 -8 13 -10 12 -10 -2 0 -10 5 -18 10 -18 6 0 10 -7 10 -15 0 -8 -6
-15 -12 -15 -10 0 -9 -3 1 -9 7 -5 9 -11 4 -14 -14 -9 -4 -117 12 -129 16 -12
28 -9 22 6 -3 8 -1 17 6 20 7 2 7 5 2 5 -7 1 -9 22 -5 59 3 31 3 74 -1 95 -3
20 -4 39 -1 42 3 2 6 42 7 87 2 54 7 82 14 81 20 -5 12 7 -11 17 -18 7 -19 9
-5 9 15 1 15 4 5 21 -15 23 -27 26 -33 8z"/>
<path d="M5840 1640 c0 -38 -4 -70 -8 -70 -12 0 -10 -74 3 -82 7 -5 7 -8 0 -8
-7 0 -11 -37 -12 -94 -2 -87 0 -93 17 -89 11 3 16 11 13 19 -4 10 0 12 11 8
12 -5 18 2 22 25 4 17 9 31 13 31 4 0 6 16 6 35 0 24 -4 34 -12 30 -18 -6 -16
0 3 20 13 13 14 16 3 15 -8 -1 -23 -1 -34 0 -16 1 -15 3 8 12 22 8 26 13 16
24 -9 11 -8 14 2 14 11 0 11 3 -1 11 -11 8 -12 12 -3 15 8 4 9 13 4 27 -5 12
-5 32 0 44 7 19 15 22 49 20 42 -2 56 -19 44 -51 -4 -11 -1 -16 10 -16 13 0
15 6 10 25 -6 24 -4 25 17 16 13 -5 50 -16 82 -26 55 -15 58 -18 43 -34 -18
-20 -20 -31 -6 -31 6 0 9 3 9 8 -3 19 2 25 12 12 8 -13 9 -12 7 4 -2 10 3 21
10 23 9 4 12 -36 12 -176 0 -116 4 -182 11 -186 17 -11 21 1 11 39 -6 20 -7
36 -4 36 12 0 9 184 -2 192 -7 5 -7 8 2 8 7 0 12 15 12 39 0 23 5 41 13 44 9
3 9 7 -2 20 -16 20 -37 22 -44 5 -3 -8 -6 -6 -6 5 -1 10 -7 17 -13 16 -29 -3
-71 2 -64 8 6 7 -64 30 -114 38 -14 2 -38 8 -55 14 -29 9 -29 9 -5 11 l25 1
-23 10 c-14 5 -30 5 -41 0 -10 -6 -23 -6 -34 0 -15 9 -17 3 -17 -61z m30 16
c0 -19 -4 -38 -10 -41 -6 -4 -10 10 -10 34 0 23 5 41 10 41 6 0 10 -15 10 -34z
m30 -249 c0 -2 -10 -12 -22 -23 l-23 -19 19 23 c18 21 26 27 26 19z"/>
<path d="M7249 1678 c-1 -13 -3 -108 -5 -213 -2 -104 -4 -190 -5 -190 0 0 -2
-7 -4 -16 -4 -20 4 -30 35 -48 25 -14 25 -14 7 6 -14 17 -17 30 -11 69 6 50
22 72 36 51 5 -8 8 -7 8 5 0 11 5 15 15 12 8 -4 22 -1 30 6 13 11 14 10 10 -3
-4 -8 -1 -18 6 -23 7 -4 10 -3 6 2 -3 6 -2 16 4 24 7 13 9 12 9 -2 0 -15 7
-17 40 -15 45 4 75 -18 64 -47 -4 -12 -1 -16 15 -16 12 0 21 5 21 11 0 5 -4 7
-10 4 -5 -3 -10 0 -10 8 0 9 9 14 23 13 15 -1 22 4 21 17 -1 9 2 17 6 17 5 0
8 -63 7 -141 -1 -130 0 -142 18 -152 28 -16 42 -18 120 -17 38 0 72 6 76 12 4
7 8 6 11 -2 5 -16 176 -14 195 2 9 7 13 7 13 -1 0 -6 19 -11 46 -11 39 0 45
-2 35 -14 -8 -10 -9 -16 -1 -21 5 -3 10 1 10 10 0 9 4 14 9 10 5 -3 13 0 17 6
4 8 3 9 -4 5 -7 -4 -12 -1 -12 7 0 10 7 13 21 10 14 -4 18 -11 14 -22 -5 -13
-4 -14 6 -3 7 6 21 12 31 12 10 0 18 6 18 13 0 9 2 9 8 0 11 -17 432 -23 432
-6 0 8 9 7 31 -4 24 -12 28 -18 18 -25 -11 -8 -11 -9 1 -5 8 2 13 11 11 18 -2
8 -4 21 -3 30 1 15 -47 16 -554 14 l-554 -3 0 153 0 154 -42 5 c-24 3 -68 5
-98 4 -30 0 -81 0 -114 1 l-58 1 6 73 c11 130 12 208 4 213 -5 3 -6 10 -3 15
4 5 -1 9 -9 9 -10 0 -16 -9 -17 -22z"/>
<path d="M5004 1661 c0 -15 7 -19 28 -18 39 3 39 37 0 37 -21 0 -28 -5 -28
-19z"/>
<path d="M8838 1673 c7 -3 16 -2 19 1 4 3 -2 6 -13 5 -11 0 -14 -3 -6 -6z"/>
<path d="M8885 1670 c3 -5 8 -10 11 -10 2 0 4 5 4 10 0 6 -5 10 -11 10 -5 0
-7 -4 -4 -10z"/>
<path d="M9150 1676 c0 -2 9 -6 20 -9 11 -3 20 -1 20 4 0 5 -9 9 -20 9 -11 0
-20 -2 -20 -4z"/>
<path d="M7020 1645 c-15 -18 -13 -22 15 -27 14 -2 21 3 23 20 4 26 -19 30
-38 7z"/>
<path d="M2460 1596 c0 -14 5 -26 10 -26 6 0 10 9 10 19 0 11 -4 23 -10 26 -6
4 -10 -5 -10 -19z"/>
<path d="M2209 1540 c-14 -15 -13 -17 22 -16 21 0 35 4 33 8 -3 5 -9 6 -14 3
-5 -3 -12 1 -17 8 -6 11 -11 10 -24 -3z"/>
<path d="M5923 1540 c3 -11 0 -20 -6 -20 -6 0 -7 -3 -4 -6 7 -8 37 14 37 26 0
4 -7 11 -16 14 -13 5 -15 2 -11 -14z"/>
<path d="M5985 1540 c3 -5 8 -10 11 -10 2 0 4 5 4 10 0 6 -5 10 -11 10 -5 0
-7 -4 -4 -10z"/>
<path d="M2167 1533 c-4 -3 -7 -11 -7 -17 0 -6 5 -5 12 2 6 6 9 14 7 17 -3 3
-9 2 -12 -2z"/>
<path d="M2450 1532 c0 -6 -3 -17 -6 -26 -4 -12 0 -16 15 -16 24 0 28 22 6 40
-9 8 -15 8 -15 2z"/>
<path d="M6160 1520 c-13 -8 -12 -10 3 -10 9 0 17 5 17 10 0 12 -1 12 -20 0z"/>
<path d="M2380 1516 c0 -8 51 -13 56 -5 3 5 -9 9 -25 9 -17 0 -31 -2 -31 -4z"/>
<path d="M1590 1468 c0 -14 30 -22 41 -11 7 7 2 12 -15 15 -14 3 -26 1 -26 -4z"/>
<path d="M2440 1471 c0 -11 26 -22 34 -14 12 12 5 23 -14 23 -11 0 -20 -4 -20
-9z"/>
<path d="M2030 1451 c0 -6 5 -13 10 -16 6 -3 10 1 10 9 0 9 -4 16 -10 16 -5 0
-10 -4 -10 -9z"/>
<path d="M7592 1361 c3 -35 13 -41 21 -11 3 10 -1 25 -9 31 -12 10 -14 7 -12
-20z"/>
<path d="M8619 1379 c-12 -7 -12 -10 0 -21 11 -11 14 -11 18 0 4 10 8 10 19 1
12 -10 13 -9 8 4 -7 20 -27 27 -45 16z"/>
<path d="M5735 1372 c-3 -3 -5 -12 -5 -19 0 -8 -7 -21 -15 -29 -8 -9 -15 -20
-15 -25 0 -12 27 -12 35 1 4 6 10 8 15 5 10 -6 20 19 20 49 0 21 -21 31 -35
18z"/>
<path d="M5782 1355 c3 -28 11 -24 13 5 1 11 -2 20 -7 20 -4 0 -7 -11 -6 -25z"/>
<path d="M5307 1331 c-8 -17 -12 -32 -9 -35 11 -11 62 -6 62 7 0 6 3 22 6 35
5 19 2 22 -19 22 -18 0 -30 -8 -40 -29z"/>
<path d="M63 1333 c-4 -10 2 -23 16 -35 13 -10 18 -18 13 -18 -6 0 1 -12 15
-27 14 -16 29 -27 34 -25 5 1 9 -3 9 -8 0 -6 4 -16 10 -23 57 -71 80 -84 80
-44 -1 28 -86 124 -93 105 -4 -9 -6 -7 -6 5 -1 9 -9 17 -18 17 -16 0 -16 2 -3
11 11 8 12 12 3 16 -7 2 -13 11 -13 19 0 9 -4 12 -10 9 -5 -3 -10 -1 -10 4 0
17 -20 13 -27 -6z"/>
<path d="M7591 1304 c0 -11 3 -14 6 -6 3 7 2 16 -1 19 -3 4 -6 -2 -5 -13z"/>
<path d="M5 1300 c-4 -6 7 -10 26 -10 18 0 29 3 25 7 -11 11 -45 13 -51 3z"/>
<path d="M7399 1300 c-7 -5 -16 -7 -20 -4 -4 2 -10 0 -14 -6 -4 -6 8 -10 29
-10 20 0 36 5 36 11 0 5 6 7 13 3 6 -4 8 -3 4 1 -11 12 -32 14 -48 5z"/>
<path d="M5 1263 c2 -10 4 -21 4 -24 1 -3 8 -6 16 -6 9 0 14 6 11 14 -4 10 1
12 19 7 19 -5 24 -3 20 8 -3 8 -21 15 -39 16 -28 2 -34 -1 -31 -15z"/>
<path d="M2334 1255 c-2 -33 11 -33 14 0 1 14 -2 25 -6 25 -4 0 -8 -11 -8 -25z"/>
<path d="M5290 1262 c0 -13 6 -18 23 -16 12 1 26 3 30 3 5 1 6 5 3 10 -4 5 0
12 6 14 7 3 -4 6 -24 6 -30 1 -38 -3 -38 -17z"/>
<path d="M5698 1273 c7 -3 16 -2 19 1 4 3 -2 6 -13 5 -11 0 -14 -3 -6 -6z"/>
<path d="M5737 1260 c3 -11 7 -20 9 -20 2 0 4 9 4 20 0 11 -4 20 -9 20 -5 0
-7 -9 -4 -20z"/>
<path d="M5822 1235 c-1 -38 1 -43 12 -33 8 7 10 15 5 16 -5 2 -7 8 -4 12 3 5
13 6 22 3 13 -5 13 -3 -2 20 -24 38 -32 34 -33 -18z"/>
<path d="M7590 1185 c0 -54 2 -96 4 -94 8 7 9 179 2 186 -3 3 -6 -38 -6 -92z"/>
<path d="M6172 1245 c0 -16 2 -22 5 -12 2 9 2 23 0 30 -3 6 -5 -1 -5 -18z"/>
<path d="M7295 1261 c-3 -2 -5 -8 -5 -13 0 -11 43 -4 47 8 3 10 -34 14 -42 5z"/>
<path d="M7397 1263 c-15 -14 -5 -23 25 -23 30 0 31 1 12 15 -22 16 -28 18
-37 8z"/>
<path d="M1610 1241 c0 -12 7 -18 18 -17 22 1 34 18 19 28 -21 13 -37 9 -37
-11z"/>
<path d="M7530 1256 c0 -2 7 -6 15 -10 8 -3 15 -1 15 4 0 6 -7 10 -15 10 -8 0
-15 -2 -15 -4z"/>
<path d="M2006 1235 c4 -8 12 -15 20 -15 19 0 18 16 -2 24 -22 9 -24 8 -18 -9z"/>
<path d="M7497 1237 c-3 -8 1 -14 8 -14 7 0 11 6 8 14 -3 7 -6 13 -8 13 -2 0
-5 -6 -8 -13z"/>
<path d="M15 1210 c3 -5 8 -10 11 -10 2 0 4 5 4 10 0 6 -5 10 -11 10 -5 0 -7
-4 -4 -10z"/>
<path d="M8660 1187 c0 -10 -7 -17 -15 -17 -10 0 -13 -9 -10 -32 2 -18 -1 -35
-7 -39 -6 -4 5 -7 26 -7 20 0 39 4 42 9 5 8 -9 13 -28 10 -5 0 -8 7 -8 16 0
13 3 14 12 5 15 -15 28 -15 28 -1 0 5 -4 7 -10 4 -5 -3 -10 1 -10 9 0 17 15
22 24 7 11 -17 70 -19 83 -2 11 15 12 14 13 -1 0 -14 4 -16 24 -8 15 5 27 5
35 -3 8 -8 11 -8 11 1 0 9 5 10 18 3 12 -6 32 -6 58 0 21 6 53 10 69 10 60 0
131 -7 142 -14 16 -10 53 27 52 51 0 14 -2 14 -8 -3 -8 -19 -8 -19 -12 -1 -4
18 -5 18 -20 3 -24 -23 -464 -23 -491 1 -16 14 -18 13 -18 -1z"/>
<path d="M8975 1190 c3 -5 8 -10 11 -10 2 0 4 5 4 10 0 6 -5 10 -11 10 -5 0
-7 -4 -4 -10z"/>
<path d="M9035 1190 c-3 -5 -2 -10 4 -10 5 0 13 5 16 10 3 6 2 10 -4 10 -5 0
-13 -4 -16 -10z"/>
<path d="M7284 1157 c5 -29 3 -39 -9 -43 -8 -3 -15 -10 -15 -14 0 -13 40 -8
41 5 3 29 -4 71 -13 80 -7 7 -8 -2 -4 -28z"/>
<path d="M5 1150 c3 -5 8 -10 11 -10 2 0 4 5 4 10 0 6 -5 10 -11 10 -5 0 -7
-4 -4 -10z"/>
<path d="M2160 1131 c0 -25 6 -27 13 -6 4 8 2 17 -3 20 -6 4 -10 -3 -10 -14z"/>
<path d="M2342 1130 c0 -14 2 -19 5 -12 2 6 2 18 0 25 -3 6 -5 1 -5 -13z"/>
<path d="M4846 1135 c4 -8 10 -15 15 -15 5 0 9 7 9 15 0 8 -7 15 -15 15 -9 0
-12 -6 -9 -15z"/>
<path d="M2135 1130 c-3 -5 -2 -18 4 -27 7 -14 9 -12 8 10 -2 30 -3 31 -12 17z"/>
<path d="M8118 1093 c6 -2 18 -2 25 0 6 3 1 5 -13 5 -14 0 -19 -2 -12 -5z"/>
<path d="M8328 1093 c6 -2 18 -2 25 0 6 3 1 5 -13 5 -14 0 -19 -2 -12 -5z"/>
<path d="M8438 1093 c6 -2 18 -2 25 0 6 3 1 5 -13 5 -14 0 -19 -2 -12 -5z"/>
<path d="M8508 1093 c7 -3 16 -2 19 1 4 3 -2 6 -13 5 -11 0 -14 -3 -6 -6z"/>
<path d="M8553 1093 c9 -2 23 -2 30 0 6 3 -1 5 -18 5 -16 0 -22 -2 -12 -5z"/>
<path d="M4616 1064 c-4 -9 -4 -19 -2 -21 8 -8 26 8 26 23 0 19 -16 18 -24 -2z"/>
<path d="M7254 1065 c-8 -21 6 -41 17 -24 12 19 11 39 -1 39 -6 0 -13 -7 -16
-15z"/>
<path d="M7290 1068 c0 -4 4 -8 9 -8 6 0 12 4 15 8 3 5 -1 9 -9 9 -8 0 -15 -4
-15 -9z"/>
<path d="M2765 1025 c-38 -37 -42 -45 -21 -45 8 0 17 8 19 18 4 15 5 15 6 -2
1 -14 7 -17 26 -13 14 2 24 2 21 -1 -9 -9 24 -33 35 -26 8 4 9 3 5 -4 -6 -11
19 -18 47 -13 4 0 7 -5 8 -11 0 -7 4 -4 8 6 7 19 8 19 14 -3 6 -24 0 -24 -67
-4 -12 3 -16 1 -12 -6 4 -6 16 -11 26 -11 10 0 21 -4 24 -9 3 -5 17 -8 31 -8
25 0 31 7 18 21 -10 10 -11 46 -1 46 4 0 8 7 8 15 0 8 -9 15 -21 15 -11 0 -18
4 -15 8 5 9 -2 11 -54 14 -16 1 -27 5 -24 10 3 4 -10 9 -28 9 l-33 1 30 7 c28
6 28 7 8 13 -17 4 -31 -3 -58 -27z"/>
<path d="M7335 1051 c-3 -5 -2 -12 3 -15 5 -3 9 1 9 9 0 17 -3 19 -12 6z"/>
<path d="M7298 1043 c7 -3 16 -2 19 1 4 3 -2 6 -13 5 -11 0 -14 -3 -6 -6z"/>
<path d="M4480 1025 c-10 -12 -10 -15 3 -15 19 0 31 16 18 24 -5 3 -14 -1 -21
-9z"/>
<path d="M5188 1016 c-11 -26 -6 -56 11 -56 5 0 11 9 14 20 3 13 1 18 -6 14
-8 -5 -7 -2 1 7 6 7 12 19 12 26 0 22 -20 15 -32 -11z"/>
<path d="M2686 1012 c-3 -5 -3 -17 0 -26 4 -11 1 -16 -10 -16 -21 0 -20 -19 2
-36 14 -12 15 -13 1 -8 -10 3 -20 0 -24 -5 -3 -6 -10 -9 -15 -6 -4 3 -13 -2
-20 -10 -21 -25 72 -20 112 6 18 12 26 19 18 16 -10 -3 -16 2 -16 14 0 14 3
16 16 6 8 -6 7 -2 -4 10 -10 13 -23 20 -29 16 -5 -3 -7 -2 -4 4 4 6 0 18 -7
28 -8 11 -15 14 -20 7z"/>
<path d="M7254 1005 c3 -23 12 -26 13 -5 1 11 -2 20 -7 20 -4 0 -7 -7 -6 -15z"/>
<path d="M4736 998 c3 -4 -1 -8 -9 -8 -7 0 -14 -7 -14 -15 0 -20 9 -19 30 5
21 25 21 27 2 27 -8 0 -12 -4 -9 -9z"/>
<path d="M7336 994 c-8 -20 -8 -24 2 -24 4 0 8 9 9 20 2 24 -3 26 -11 4z"/>
<path d="M5148 993 c-24 -6 -23 -28 2 -30 14 -1 20 4 20 18 0 10 -1 18 -2 18
-2 -1 -11 -3 -20 -6z"/>
<path d="M2970 977 c0 -7 5 -18 12 -25 9 -9 9 -15 0 -24 -22 -22 -13 -38 19
-38 30 0 31 1 17 23 -8 12 -13 34 -11 50 3 22 0 27 -17 27 -11 0 -20 -6 -20
-13z"/>
<path d="M6846 953 c2 -7 -3 -13 -11 -13 -17 0 -19 -18 -6 -39 11 -17 25 4 15
22 -6 9 -4 9 8 -1 14 -11 16 -9 14 12 0 13 -4 22 -8 20 -3 -2 -8 -1 -11 3 -2
5 -2 2 -1 -4z"/>
<path d="M6800 950 c0 -5 7 -7 15 -4 8 4 15 8 15 10 0 2 -7 4 -15 4 -8 0 -15
-4 -15 -10z"/>
<path d="M7260 956 c0 -2 7 -6 15 -10 8 -3 15 -1 15 4 0 6 -7 10 -15 10 -8 0
-15 -2 -15 -4z"/>
<path d="M653 942 c-7 -4 -9 -13 -4 -21 5 -7 13 -11 19 -7 6 3 15 -1 20 -10 9
-15 10 -15 17 6 10 31 -22 51 -52 32z"/>
<path d="M5361 942 c-1 -7 -6 -10 -13 -6 -8 5 -9 2 -5 -9 6 -16 -3 -22 -26
-18 -5 1 -6 -3 -2 -9 3 -5 16 -8 28 -6 22 3 33 26 24 49 -4 9 -6 9 -6 -1z"/>
<path d="M5380 929 c0 -11 5 -19 12 -17 17 6 19 38 2 38 -8 0 -14 -9 -14 -21z"/>
<path d="M1004 925 c-10 -26 6 -38 27 -19 10 9 19 21 19 26 0 14 -40 9 -46 -7z"/>
<path d="M5240 925 c0 -8 8 -15 18 -14 10 0 12 3 4 6 -6 2 -10 9 -6 14 3 5 0
9 -5 9 -6 0 -11 -7 -11 -15z"/>
<path d="M5456 925 c4 -8 11 -15 16 -15 6 0 5 6 -2 15 -7 8 -14 15 -16 15 -2
0 -1 -7 2 -15z"/>
<path d="M7340 913 c0 -30 9 -27 15 6 2 11 0 21 -6 21 -5 0 -9 -12 -9 -27z"/>
<path d="M880 905 c-11 -13 -8 -15 20 -15 21 0 30 4 28 13 -7 18 -33 20 -48 2z"/>
<path d="M1053 913 c-20 -8 -15 -23 7 -23 11 0 20 7 20 15 0 15 -6 17 -27 8z"/>
<path d="M1340 911 c-8 -6 -11 -13 -7 -18 5 -4 12 -1 17 7 7 10 10 11 10 3 0
-7 9 -13 21 -13 26 0 20 24 -7 28 -10 1 -26 -2 -34 -7z"/>
<path d="M1205 900 c-3 -5 3 -10 14 -10 12 0 21 5 21 10 0 6 -6 10 -14 10 -8
0 -18 -4 -21 -10z"/>
<path d="M881 866 c-9 -10 -7 -17 6 -27 17 -13 17 -13 4 4 -13 17 -13 18 4 15
10 -1 20 3 22 10 6 16 -22 15 -36 -2z"/>
<path d="M1006 872 c-8 -13 25 -25 37 -13 5 5 16 7 23 4 8 -3 14 0 14 6 0 15
-37 14 -43 -1 -4 -10 -8 -10 -15 1 -6 8 -12 9 -16 3z"/>
<path d="M1208 868 c17 -17 39 -18 39 -2 0 8 -11 14 -26 14 -19 0 -22 -3 -13
-12z"/>
<path d="M1360 871 c0 -6 5 -13 12 -17 6 -4 8 -3 4 4 -3 5 0 13 6 15 8 3 6 6
-4 6 -10 1 -18 -3 -18 -8z"/>
<path d="M2610 865 c0 -13 4 -14 20 -5 11 6 20 13 20 15 0 3 -9 5 -20 5 -11 0
-20 -7 -20 -15z"/>
<path d="M2916 868 c3 -4 11 -5 19 -1 21 7 19 12 -4 10 -11 0 -18 -5 -15 -9z"/>
<path d="M2970 866 c0 -8 6 -17 13 -20 9 -4 9 -7 0 -12 -8 -3 -8 -15 -1 -40 5
-20 7 -42 4 -50 -3 -9 -1 -12 4 -9 6 3 10 1 10 -4 0 -6 -6 -11 -13 -11 -8 0
-14 -7 -14 -15 0 -8 4 -12 8 -9 12 7 18 -11 9 -26 -5 -9 -5 -19 2 -27 7 -9 7
-17 -2 -28 -7 -8 -8 -15 -3 -15 5 0 9 -9 10 -20 1 -13 -2 -18 -9 -14 -7 4 -8
2 -4 -5 4 -6 11 -9 16 -6 4 3 10 0 12 -7 3 -9 6 -9 12 0 4 7 2 12 -4 12 -6 0
-8 5 -4 12 11 17 12 108 2 108 -5 0 -4 9 2 20 7 14 7 20 0 20 -5 0 -10 9 -10
21 0 11 4 18 8 15 4 -2 9 5 9 16 1 11 -1 18 -4 14 -3 -3 -13 4 -21 15 -13 19
-13 23 3 37 11 11 15 12 10 3 -5 -9 -4 -12 3 -7 7 4 12 16 12 27 0 14 -7 19
-30 19 -19 0 -30 -5 -30 -14z"/>
<path d="M5016 871 c-4 -7 -5 -15 -2 -18 9 -9 19 4 14 18 -4 11 -6 11 -12 0z"/>
<path d="M5133 864 c-3 -9 3 -25 16 -37 l21 -21 0 37 c0 27 -4 37 -15 37 -9 0
-18 -7 -22 -16z"/>
<path d="M5181 810 c0 -55 2 -61 11 -37 5 15 14 27 20 27 6 0 5 6 -2 15 -10
12 -10 19 -2 27 18 18 14 37 -8 35 -18 -1 -20 -8 -19 -67z"/>
<path d="M5350 871 c0 -6 4 -12 8 -15 5 -3 9 1 9 9 0 8 -4 15 -9 15 -4 0 -8
-4 -8 -9z"/>
<path d="M5383 865 c0 -8 4 -15 9 -15 4 0 8 7 8 15 0 8 -4 15 -8 15 -5 0 -9
-7 -9 -15z"/>
<path d="M6823 865 c0 -8 4 -15 9 -15 4 0 8 4 8 9 0 6 -4 12 -8 15 -5 3 -9 -1
-9 -9z"/>
<path d="M7293 857 c-3 -6 -1 -7 5 -3 7 4 12 1 12 -9 0 -9 -4 -13 -10 -10 -5
3 -10 0 -10 -7 -1 -10 -4 -9 -13 2 -7 8 -19 16 -27 18 -11 3 -10 -1 3 -16 12
-13 15 -22 8 -27 -14 -8 -14 -25 -1 -25 6 0 9 5 8 12 -2 7 3 13 10 14 6 1 16
2 21 3 5 0 13 14 19 29 8 23 7 29 -5 29 -7 0 -17 -5 -20 -10z"/>
<path d="M693 845 c0 -8 4 -15 9 -15 4 0 8 7 8 15 0 8 -4 15 -8 15 -5 0 -9 -7
-9 -15z"/>
<path d="M936 847 c5 -14 2 -16 -12 -11 -16 5 -16 4 -4 -5 20 -14 39 4 21 22
-10 10 -11 9 -5 -6z"/>
<path d="M6846 844 c-8 -21 -8 -21 8 -21 8 0 11 8 8 19 -5 22 -8 23 -16 2z"/>
<path d="M5505 840 c3 -5 8 -10 11 -10 2 0 4 5 4 10 0 6 -5 10 -11 10 -5 0 -7
-4 -4 -10z"/>
<path d="M2626 831 c-13 -5 -16 -10 -9 -14 7 -4 14 -3 18 3 4 6 11 7 17 4 7
-4 8 -2 4 4 -4 7 -8 12 -9 11 -1 0 -11 -4 -21 -8z"/>
<path d="M7331 824 c0 -11 3 -14 6 -6 3 7 2 16 -1 19 -3 4 -6 -2 -5 -13z"/>
<path d="M2298 813 c7 -3 16 -2 19 1 4 3 -2 6 -13 5 -11 0 -14 -3 -6 -6z"/>
<path d="M1087 803 c-9 -2 -15 -9 -12 -14 9 -14 22 -11 29 6 3 8 4 14 3 14 -1
-1 -10 -3 -20 -6z"/>
<path d="M3823 780 c5 -19 0 -20 -78 -20 -46 0 -86 4 -89 8 -8 14 -79 14 -87
0 -5 -7 -9 -8 -9 -2 0 16 -181 18 -192 2 -6 -10 -8 -10 -8 0 0 6 -10 12 -22
12 -22 0 -23 -3 -24 -108 0 -60 -4 -106 -10 -105 -5 1 -10 -24 -11 -55 -1 -32
-11 -106 -22 -167 -10 -60 -17 -112 -14 -115 2 -3 11 4 19 14 11 16 11 21 1
28 -8 5 -3 8 13 8 23 0 25 4 27 50 1 28 -2 48 -7 45 -5 -3 -12 0 -16 6 -4 7
-3 9 4 5 6 -3 13 -2 17 4 3 5 3 10 -2 10 -7 0 -8 18 -4 98 1 12 7 22 15 22 20
0 27 27 19 75 -9 56 -6 137 6 144 10 6 83 5 141 -2 19 -3 43 -1 53 4 10 6 24
6 35 0 9 -5 37 -12 62 -15 25 -3 54 -7 65 -10 11 -2 26 -5 33 -5 7 -1 10 -6 6
-13 -4 -7 -3 -8 4 -4 7 4 13 19 13 34 2 24 2 24 6 5 3 -17 11 -23 30 -23 15 0
23 -3 20 -6 -3 -4 -2 -15 3 -25 8 -13 6 -19 -8 -22 -13 -4 -13 -5 -2 -6 23 -2
23 -381 0 -381 -11 0 -12 -2 -3 -8 8 -5 9 -13 3 -22 -6 -8 -9 -22 -9 -30 0
-10 3 -8 9 5 8 19 9 19 9 -2 1 -12 6 -25 13 -29 6 -4 8 -3 5 4 -11 16 4 44 19
38 8 -3 14 -1 14 4 0 6 -7 10 -15 10 -21 0 -17 366 5 380 14 9 7 14 -13 11 -5
-1 -7 4 -4 11 2 7 10 12 16 10 17 -3 13 15 -5 22 -15 6 -14 9 5 25 19 16 19
20 6 31 -8 7 -15 23 -15 35 0 13 -7 26 -16 29 -13 5 -15 2 -11 -14z m-530
-440 c3 -11 1 -18 -4 -14 -5 3 -9 12 -9 20 0 20 7 17 13 -6z"/>
<path d="M5154 789 c-3 -6 -2 -15 3 -20 5 -5 9 -1 9 11 0 23 -2 24 -12 9z"/>
<path d="M875 761 c-3 -5 -1 -12 5 -16 5 -3 10 1 10 9 0 18 -6 21 -15 7z"/>
<path d="M2945 760 c-3 -5 -1 -10 4 -10 6 0 11 5 11 10 0 6 -2 10 -4 10 -3 0
-8 -4 -11 -10z"/>
<path d="M2468 730 c2 -16 6 -30 8 -30 2 0 4 14 4 30 0 17 -4 30 -8 30 -5 0
-7 -13 -4 -30z"/>
<path d="M4590 741 c-13 -26 -13 -31 5 -31 8 0 15 7 15 15 0 9 6 12 15 9 22
-9 18 3 -5 16 -15 8 -21 6 -30 -9z"/>
<path d="M5850 733 c5 -2 8 -9 5 -13 -3 -5 -1 -11 4 -14 5 -4 8 2 7 11 -2 9
-8 18 -15 19 -6 1 -7 0 -1 -3z"/>
<path d="M4557 723 c-4 -3 -7 -11 -7 -17 0 -6 5 -5 12 2 6 6 9 14 7 17 -3 3
-9 2 -12 -2z"/>
<path d="M2472 650 c0 -19 2 -27 5 -17 2 9 2 25 0 35 -3 9 -5 1 -5 -18z"/>
<path d="M5796 672 c-3 -5 1 -9 9 -9 8 0 12 4 9 9 -3 4 -7 8 -9 8 -2 0 -6 -4
-9 -8z"/>
<path d="M6738 673 c7 -3 16 -2 19 1 4 3 -2 6 -13 5 -11 0 -14 -3 -6 -6z"/>
<path d="M634 653 c3 -8 6 -19 6 -24 0 -6 5 -7 10 -4 6 4 17 1 25 -5 12 -10
15 -9 15 3 0 17 -25 40 -47 43 -9 2 -12 -3 -9 -13z"/>
<path d="M882 658 c0 -7 -3 -22 -7 -34 -5 -14 -2 -21 8 -21 10 0 13 6 9 16 -5
14 -4 14 13 1 17 -14 18 -13 11 5 -5 11 -9 26 -9 33 0 6 -6 12 -12 12 -6 0
-12 -6 -13 -12z"/>
<path d="M5839 661 c16 -11 27 -56 11 -46 -5 3 -10 12 -10 18 0 7 -9 13 -20
13 -11 0 -20 -1 -20 -2 0 -1 17 -13 38 -28 45 -30 87 -42 79 -22 -3 7 1 13 8
13 7 0 11 -6 9 -12 -3 -6 2 -12 11 -12 8 0 15 4 15 9 0 4 0 11 0 15 0 4 -18 8
-39 8 -22 0 -37 -3 -35 -7 3 -5 1 -8 -4 -8 -14 0 -21 35 -11 51 6 11 9 10 15
-4 6 -17 34 -24 34 -8 0 9 -28 20 -70 27 -18 3 -21 2 -11 -5z"/>
<path d="M6790 638 c0 -22 5 -28 21 -28 13 0 18 -4 13 -12 -6 -10 -4 -10 7 -2
8 6 23 10 34 8 53 -11 108 -8 113 4 9 25 -17 35 -93 37 -41 1 -70 -2 -63 -7
10 -6 10 -8 1 -8 -7 0 -17 8 -22 18 -9 14 -10 13 -11 -10z"/>
<path d="M1030 635 c-18 -22 -4 -35 24 -22 18 9 22 15 14 24 -14 17 -23 16
-38 -2z"/>
<path d="M5192 637 c-1 -6 -4 -25 -8 -42 -7 -27 -6 -29 10 -16 15 12 16 12 10
-5 -5 -15 -4 -16 4 -4 6 8 8 18 6 22 -3 5 5 17 18 28 16 14 18 18 5 14 -9 -3
-23 -1 -30 5 -10 8 -14 7 -15 -2z"/>
<path d="M5955 640 c-3 -5 -1 -10 4 -10 6 0 11 5 11 10 0 6 -2 10 -4 10 -3 0
-8 -4 -11 -10z"/>
<path d="M5984 628 c0 -12 8 -18 23 -18 13 0 23 5 23 10 0 6 -5 10 -11 10 -5
0 -8 4 -5 8 2 4 -3 8 -13 8 -9 0 -17 -8 -17 -18z"/>
<path d="M1197 633 c-13 -12 -7 -40 11 -54 14 -11 15 -11 5 1 -15 16 -17 34
-4 26 5 -4 8 1 7 9 -3 19 -11 27 -19 18z"/>
<path d="M1362 605 c4 -28 9 -39 19 -36 8 2 19 4 26 4 15 0 2 25 -27 52 l-22
20 4 -40z"/>
<path d="M6990 625 c0 -8 4 -15 10 -15 5 0 7 7 4 15 -4 8 -8 15 -10 15 -2 0
-4 -7 -4 -15z"/>
<path d="M1116 608 c3 -4 9 -8 15 -8 5 0 9 4 9 8 0 5 -7 9 -15 9 -8 0 -12 -4
-9 -9z"/>
<path d="M5084 608 c-3 -4 -2 -13 2 -20 4 -6 3 -8 -3 -5 -16 10 -34 -16 -22
-33 5 -10 12 -11 17 -5 4 6 14 10 22 10 8 0 19 -4 23 -10 4 -5 5 2 1 18 -4 17
-2 27 5 27 8 0 8 4 -1 13 -14 15 -36 18 -44 5z"/>
<path d="M5809 609 c-1 -8 -1 -23 0 -34 2 -17 0 -17 -8 -5 -7 9 -11 10 -11 3
0 -6 5 -15 11 -19 6 -3 9 -19 5 -35 -4 -19 -1 -29 7 -29 13 0 18 113 4 126 -4
4 -8 1 -8 -7z"/>
<path d="M2468 583 c5 -21 7 -23 10 -9 2 10 0 22 -6 28 -6 6 -7 0 -4 -19z"/>
<path d="M5980 592 c0 -5 7 -9 15 -9 8 0 12 4 9 9 -3 4 -9 8 -15 8 -5 0 -9 -4
-9 -8z"/>
<path d="M6990 589 c0 -5 5 -7 10 -4 6 3 10 8 10 11 0 2 -4 4 -10 4 -5 0 -10
-5 -10 -11z"/>
<path d="M6793 572 c-1 -11 5 -18 17 -18 18 0 18 2 3 18 -9 10 -17 18 -17 18
-1 0 -2 -8 -3 -18z"/>
<path d="M6736 566 c7 -18 13 -20 34 -6 9 6 10 10 3 10 -6 0 -19 3 -27 6 -12
5 -15 2 -10 -10z"/>
<path d="M5761 563 c-1 -6 -4 -20 -7 -30 -5 -17 -5 -17 6 0 6 10 9 23 6 30 -3
9 -5 9 -5 0z"/>
<path d="M5990 560 c0 -5 5 -10 12 -10 9 0 9 -3 0 -12 -7 -7 -12 -17 -12 -22
0 -6 5 -3 11 7 6 10 16 14 22 10 7 -3 3 3 -7 15 -21 24 -26 27 -26 12z"/>
<path d="M5140 549 c0 -5 5 -7 10 -4 6 3 10 8 10 11 0 2 -4 4 -10 4 -5 0 -10
-5 -10 -11z"/>
<path d="M2970 531 c0 -6 4 -13 10 -16 6 -3 7 1 4 9 -7 18 -14 21 -14 7z"/>
<path d="M6742 515 c-1 -14 2 -25 6 -25 4 0 8 11 8 25 2 33 -11 33 -14 0z"/>
<path d="M6803 519 c-2 -23 3 -25 10 -4 4 8 3 16 -1 19 -4 3 -9 -4 -9 -15z"/>
<path d="M1610 465 c-15 -18 -4 -185 12 -185 6 0 8 9 5 20 -3 11 -1 18 4 14
12 -7 11 1 -5 41 -8 19 -12 35 -8 35 4 0 12 10 17 23 6 12 19 22 32 23 12 1
20 -2 17 -7 -2 -4 -12 -5 -22 -2 -10 4 -14 2 -9 -3 5 -5 20 -9 33 -9 18 -1 23
3 19 15 -2 8 3 5 11 -7 9 -13 22 -23 28 -23 6 0 5 4 -3 9 -12 8 -12 12 1 25
15 14 17 14 30 -1 9 -12 9 -14 1 -9 -9 5 -11 2 -7 -8 11 -27 94 -16 94 13 0
14 2 14 10 1 6 -10 10 -11 10 -2 0 6 5 12 11 12 5 0 7 -6 3 -12 -6 -10 -5 -10
8 -1 8 7 19 9 23 5 5 -4 5 -1 1 6 -5 8 0 12 13 12 12 0 21 -4 21 -10 0 -5 5
-10 10 -10 6 0 10 6 10 14 0 9 7 12 20 9 11 -3 20 -1 20 5 0 6 -8 11 -17 11
-185 2 -337 1 -341 -3 -2 -3 -13 -1 -22 4 -13 7 -21 5 -30 -5z m30 -24 c0 -6
-4 -13 -10 -16 -5 -3 -10 1 -10 9 0 9 5 16 10 16 6 0 10 -4 10 -9z m185 -19
c-11 -11 -32 -10 -32 3 0 7 8 10 19 7 10 -2 16 -7 13 -10z"/>
<path d="M2465 469 c-4 -6 -5 -12 -2 -15 2 -3 7 2 10 11 7 17 1 20 -8 4z"/>
<path d="M5798 455 c-3 -16 -1 -22 6 -19 6 3 3 -1 -6 -9 -20 -16 -24 -47 -8
-47 6 0 10 -6 8 -12 -2 -7 1 -13 7 -13 5 0 10 28 11 63 1 62 -9 84 -18 37z"/>
<path d="M5991 458 c-1 -21 4 -28 17 -28 11 0 18 7 18 21 0 18 -2 19 -12 4
-11 -15 -13 -14 -17 7 -4 21 -4 20 -6 -4z"/>
<path d="M6735 461 c2 -9 4 -18 4 -21 2 -6 21 23 21 31 0 3 -6 6 -14 6 -7 0
-12 -7 -11 -16z"/>
<path d="M3787 453 c-10 -9 -9 -33 1 -33 4 0 8 9 8 20 0 23 0 22 -9 13z"/>
<path d="M5745 449 c-4 -6 -5 -12 -2 -15 2 -3 7 2 10 11 7 17 1 20 -8 4z"/>
<path d="M6738 412 c-3 -9 -1 -26 4 -37 8 -19 8 -19 5 1 -3 12 0 29 5 38 5 10
5 16 0 16 -5 0 -12 -8 -14 -18z"/>
<path d="M5992 400 c0 -14 2 -19 5 -12 2 6 2 18 0 25 -3 6 -5 1 -5 -13z"/>
<path d="M2464 389 c1 -14 8 -23 21 -25 11 -1 32 -5 48 -8 41 -8 34 18 -8 31
-26 8 -33 8 -28 0 3 -7 -3 -4 -14 6 -20 17 -20 17 -19 -4z"/>
<path d="M4315 379 c-26 -27 -27 -30 -7 -20 12 7 31 9 41 6 14 -4 18 0 17 16
-2 34 -19 33 -51 -2z m45 11 c0 -5 -4 -10 -10 -10 -5 0 -10 5 -10 10 0 6 5 10
10 10 6 0 10 -4 10 -10z"/>
<path d="M6010 393 c0 -7 4 -13 9 -13 5 0 11 6 14 13 3 8 -1 14 -9 14 -8 0
-14 -6 -14 -14z"/>
<path d="M2220 376 c0 -22 3 -27 11 -19 8 8 8 16 0 30 -9 16 -10 14 -11 -11z"/>
<path d="M4380 377 c0 -10 8 -17 18 -17 9 0 13 4 7 8 -5 4 -13 11 -17 16 -5 5
-8 2 -8 -7z"/>
<path d="M2573 360 c-1 -17 1 -18 17 -8 14 9 16 14 7 20 -18 12 -23 10 -24
-12z"/>
<path d="M5714 369 c-3 -5 -2 -9 3 -8 4 1 10 0 13 -1 18 -6 39 -7 35 0 -8 12
-44 19 -51 9z"/>
<path d="M4456 348 c3 -5 10 -6 15 -3 13 9 11 12 -6 12 -8 0 -12 -4 -9 -9z"/>
<path d="M6795 350 c3 -5 8 -10 11 -10 2 0 4 5 4 10 0 6 -5 10 -11 10 -5 0 -7
-4 -4 -10z"/>
<path d="M990 345 c0 -5 5 -17 10 -25 5 -8 10 -10 10 -5 0 6 -5 17 -10 25 -5
8 -10 11 -10 5z"/>
<path d="M2249 348 c-7 -24 -4 -40 9 -50 15 -11 15 -11 6 2 -6 8 -10 23 -9 33
3 13 -2 26 -6 15z"/>
<path d="M6018 343 c7 -3 16 -2 19 1 4 3 -2 6 -13 5 -11 0 -14 -3 -6 -6z"/>
<path d="M7295 340 c3 -5 8 -10 11 -10 2 0 4 5 4 10 0 6 -5 10 -11 10 -5 0 -7
-4 -4 -10z"/>
<path d="M3746 327 c3 -10 9 -15 12 -12 3 3 0 11 -7 18 -10 9 -11 8 -5 -6z"/>
<path d="M7100 324 c0 -9 5 -12 11 -8 8 4 9 -1 5 -17 -6 -20 -5 -21 4 -6 6 9
18 17 25 17 8 0 15 5 15 10 0 6 -3 9 -7 9 -5 -1 -10 0 -13 1 -23 9 -40 6 -40
-6z"/>
<path d="M7273 319 c-2 -23 3 -25 10 -4 4 8 3 16 -1 19 -4 3 -9 -4 -9 -15z"/>
<path d="M4226 317 c3 -10 9 -15 12 -12 3 3 0 11 -7 18 -10 9 -11 8 -5 -6z"/>
<path d="M6735 320 c3 -5 8 -10 11 -10 2 0 4 5 4 10 0 6 -5 10 -11 10 -5 0 -7
-4 -4 -10z"/>
<path d="M5738 313 c7 -3 16 -2 19 1 4 3 -2 6 -13 5 -11 0 -14 -3 -6 -6z"/>
<path d="M1455 299 c-10 -15 3 -25 16 -12 7 7 7 13 1 17 -6 3 -14 1 -17 -5z"/>
<path d="M6697 297 c-6 -15 0 -17 38 -15 25 2 45 7 45 12 0 4 -11 6 -25 4 -14
-3 -25 -1 -25 6 0 6 -4 5 -9 -3 -7 -11 -9 -11 -13 0 -3 9 -6 8 -11 -4z"/>
<path d="M6390 270 c-1 -14 -4 -19 -7 -12 -3 8 -33 12 -99 12 -68 0 -94 -3
-94 -12 0 -8 -3 -9 -8 -3 -4 6 -18 11 -32 13 -20 2 -22 1 -10 -7 13 -9 13 -11
-2 -11 -10 0 -18 6 -18 13 0 9 -2 9 -9 -1 -5 -9 -29 -13 -77 -12 -107 3 -168
1 -161 -6 3 -3 46 -6 96 -6 72 0 91 -2 91 -14 0 -8 8 -14 18 -14 13 0 14 2 4
9 -11 7 -10 10 3 15 23 8 25 8 23 -5 -5 -19 18 -21 35 -4 17 17 26 10 22 -18
-2 -9 1 -15 6 -11 5 3 7 9 5 13 -9 15 12 34 30 27 16 -6 16 -8 4 -16 -8 -6
-10 -10 -4 -10 6 0 17 6 23 14 13 15 48 14 81 -4 19 -10 22 -10 18 2 -4 9 1
14 13 14 16 0 17 -2 4 -16 -8 -9 -12 -19 -9 -22 3 -3 1 -9 -5 -13 -6 -3 -11 0
-11 8 0 17 -47 40 -55 27 -3 -5 5 -10 17 -12 27 -4 29 -22 4 -26 -13 -3 -16 0
-11 9 6 8 4 10 -5 4 -7 -4 -16 -2 -22 6 -8 11 -9 10 -4 -3 4 -14 0 -17 -24
-14 -17 2 -30 -1 -30 -5 0 -11 149 -10 175 1 19 8 18 11 -4 14 -5 0 -13 4 -17
9 -7 6 9 11 29 8 4 0 7 5 7 13 0 10 10 14 31 14 24 -1 27 -3 15 -10 -9 -5 -21
-6 -26 -3 -6 3 -10 1 -10 -4 0 -6 7 -11 15 -11 18 0 20 -20 3 -21 -7 0 -4 -4
7 -8 26 -11 29 -7 15 19 -10 20 -10 21 8 11 11 -6 22 -7 26 -4 3 3 6 1 6 -5 0
-7 -6 -12 -12 -13 -7 0 -4 -4 7 -8 17 -7 43 -7 103 -2 6 1 12 6 12 12 0 5 -8
9 -17 7 -10 -1 -24 2 -32 6 -11 7 -13 5 -8 -8 4 -10 3 -15 -3 -11 -23 14 -9
34 23 32 21 -1 31 2 29 11 -3 17 40 11 64 -8 17 -14 18 -14 6 2 -12 15 -11 17
8 15 15 -1 20 -7 18 -22 -2 -15 -11 -20 -37 -21 -19 0 -36 -4 -38 -10 -2 -5
11 -8 27 -8 47 2 48 3 56 27 4 12 12 25 18 29 15 10 38 10 32 0 -2 -4 0 -14 5
-22 8 -12 9 -11 7 5 -2 16 4 21 26 23 16 2 36 11 45 19 14 14 13 15 -9 8 -14
-4 -31 -10 -39 -13 -9 -3 -12 -1 -7 6 5 8 0 12 -13 12 -12 0 -21 -6 -21 -12 0
-9 -3 -9 -8 -2 -10 15 -115 16 -124 1 -6 -9 -8 -9 -8 1 0 9 -24 12 -85 12 -61
0 -85 -4 -86 -12 -1 -7 -5 -2 -9 12 l-8 25 -2 -25z m-260 -40 c0 -5 -5 -10
-11 -10 -5 0 -7 5 -4 10 3 6 8 10 11 10 2 0 4 -4 4 -10z m370 -20 c0 -16 -5
-30 -11 -30 -6 0 -8 7 -5 16 4 9 1 23 -5 30 -9 11 -8 14 5 14 11 0 16 -9 16
-30z m64 22 c6 -10 -30 -9 -40 1 -4 4 2 7 14 7 11 0 23 -4 26 -8z"/>
<path d="M1418 245 c-10 -13 -18 -28 -18 -34 0 -5 -8 -15 -17 -20 -10 -6 -13
-11 -8 -11 6 0 4 -4 -3 -9 -8 -5 -12 -17 -10 -27 3 -16 7 -14 20 11 25 47 85
108 91 93 3 -8 6 -6 6 5 1 26 -41 21 -61 -8z"/>
<path d="M1635 260 c-4 -6 -10 -8 -14 -5 -5 2 -6 -7 -3 -20 4 -23 1 -25 -29
-26 -19 0 -29 -3 -23 -5 6 -3 9 -16 6 -30 -3 -16 1 -30 9 -35 11 -7 10 -9 -3
-9 -10 0 -18 -5 -18 -10 0 -7 7 -7 21 0 16 9 18 14 9 26 -14 16 -6 46 12 43
29 -4 36 2 33 29 -2 15 2 33 7 40 6 6 8 12 5 12 -3 0 -9 -5 -12 -10z"/>
<path d="M6068 263 c6 -2 18 -2 25 0 6 3 1 5 -13 5 -14 0 -19 -2 -12 -5z"/>
<path d="M5807 243 c-10 -9 -9 -23 1 -23 5 0 9 7 9 15 0 17 -1 18 -10 8z"/>
<path d="M2285 230 c-3 -5 -33 -10 -66 -10 -45 0 -59 -3 -59 -15 0 -8 6 -12
14 -9 8 3 17 1 21 -5 4 -8 12 -8 25 -1 13 7 21 7 25 0 4 -6 12 -4 22 5 10 11
19 13 27 6 8 -7 12 -3 14 15 2 24 -12 33 -23 14z"/>
<path d="M5910 219 c-24 -8 -24 -8 4 -5 21 3 30 -1 33 -15 3 -10 9 -16 14 -14
10 7 1 32 -14 38 -7 2 -23 0 -37 -4z"/>
<path d="M2061 211 c-15 -9 -4 -18 19 -16 8 1 28 3 44 3 16 1 26 5 22 9 -11
11 -40 10 -48 -2 -5 -6 -11 -6 -16 2 -4 7 -13 9 -21 4z"/>
<path d="M4607 213 c-4 -3 -7 -13 -7 -22 0 -9 3 -12 8 -6 11 16 41 15 35 -1
-3 -8 0 -14 6 -14 15 0 14 23 -1 38 -13 13 -31 16 -41 5z"/>
<path d="M5240 209 c0 -4 -12 -12 -27 -17 -16 -6 -22 -11 -15 -11 7 -1 10 -6
7 -11 -4 -6 -10 -8 -14 -6 -4 3 -8 -23 -8 -56 -1 -34 -7 -64 -13 -68 -15 -9
-1 -40 17 -40 11 0 14 7 11 25 -3 14 -1 28 4 31 6 4 5 10 -3 15 -11 7 -11 9 1
9 14 0 19 12 22 58 2 17 208 15 208 -2 0 -6 5 -4 10 4 5 8 10 10 10 4 0 -7 21
-9 58 -7 31 2 62 4 67 4 6 0 25 -2 42 -5 18 -3 35 0 39 6 4 7 2 8 -5 4 -6 -4
-10 -4 -9 1 2 4 -1 10 -7 12 -5 2 -15 10 -21 18 -9 13 -12 13 -23 -1 -15 -17
-36 -22 -26 -6 3 6 -1 10 -10 10 -9 0 -14 4 -11 8 3 5 -1 9 -9 9 -8 0 -15 -4
-15 -9 0 -5 -4 -6 -10 -3 -5 3 -10 2 -10 -3 0 -5 -10 -8 -22 -6 -13 1 -31 3
-41 3 -10 1 -16 4 -14 9 3 4 -6 8 -19 8 -20 2 -24 -2 -19 -17 4 -11 2 -19 -4
-19 -6 0 -11 9 -11 20 0 18 -7 20 -56 20 -30 0 -53 4 -50 8 3 5 -1 9 -9 9 -8
0 -15 -4 -15 -8z"/>
<path d="M5983 199 c-2 -23 3 -25 10 -4 4 8 3 16 -1 19 -4 3 -9 -4 -9 -15z"/>
<path d="M7067 206 c4 -13 3 -17 -5 -12 -22 13 -71 15 -66 2 3 -7 17 -13 32
-13 15 0 44 -3 65 -6 30 -3 43 0 58 17 16 16 19 17 14 4 -4 -11 -2 -18 4 -18
13 0 15 26 3 34 -5 3 -21 -1 -36 -9 -32 -17 -46 -16 -63 5 -11 13 -12 12 -6
-4z"/>
<path d="M7308 213 c29 -12 8 -19 -35 -13 -27 4 -55 5 -63 1 -22 -9 -22 -27 1
-28 13 -1 17 2 12 10 -5 9 -3 9 8 1 18 -13 59 -16 59 -3 0 5 5 9 11 9 5 0 8
-4 4 -9 -3 -5 -1 -13 5 -16 6 -4 9 -1 8 6 -2 6 3 14 11 17 8 2 11 1 8 -4 -3
-5 6 -10 19 -10 20 -2 23 1 13 12 -6 8 -15 11 -20 8 -5 -3 -12 2 -15 10 -3 9
-14 16 -23 15 -10 0 -11 -2 -3 -6z"/>
<path d="M3865 199 c-4 -6 -5 -12 -2 -15 2 -3 7 2 10 11 7 17 1 20 -8 4z"/>
<path d="M7420 202 c-14 -4 -26 -13 -28 -21 -3 -12 0 -12 13 -1 8 7 18 10 22
6 3 -3 1 -6 -5 -6 -7 0 -12 -4 -12 -8 0 -14 55 -8 68 8 8 8 11 10 8 3 -4 -6
-2 -15 4 -18 6 -4 9 -1 8 6 -2 7 6 14 17 16 16 3 17 2 5 -6 -13 -9 -13 -11 3
-11 9 0 17 7 17 15 0 10 -10 15 -27 15 -16 0 -37 2 -48 4 -11 2 -31 1 -45 -2z
m45 -12 c3 -5 -1 -10 -10 -10 -9 0 -13 5 -10 10 3 6 8 10 10 10 2 0 7 -4 10
-10z"/>
<path d="M5675 182 c-5 -14 -7 -14 -15 -2 -5 8 -12 11 -16 7 -10 -10 16 -38
29 -30 5 3 7 1 3 -5 -3 -6 -2 -13 4 -17 6 -3 13 2 16 12 3 10 9 25 14 33 5 12
3 16 -10 17 -10 1 -21 -6 -25 -15z"/>
<path d="M5915 190 c-3 -6 1 -7 9 -4 18 7 21 14 7 14 -6 0 -13 -4 -16 -10z"/>
<path d="M6080 188 c0 -14 8 -18 35 -18 19 0 35 4 35 9 0 4 -12 6 -26 3 -16
-3 -30 1 -35 9 -7 11 -9 10 -9 -3z"/>
<path d="M7550 185 c0 -8 2 -15 4 -15 2 0 6 7 10 15 3 8 1 15 -4 15 -6 0 -10
-7 -10 -15z"/>
<path d="M5723 183 c-7 -2 -13 -9 -13 -14 0 -6 5 -7 10 -4 6 3 10 -1 10 -9 0
-9 5 -16 10 -16 7 0 7 6 1 19 -6 10 -7 21 -4 25 7 7 4 7 -14 -1z"/>
<path d="M5993 175 c-15 -17 -3 -27 17 -15 10 6 11 12 5 19 -6 6 -14 4 -22 -4z"/>
<path d="M6680 186 c0 -2 7 -6 15 -10 8 -3 15 -1 15 4 0 6 -7 10 -15 10 -8 0
-15 -2 -15 -4z"/>
<path d="M1598 173 c6 -2 10 -9 7 -14 -4 -5 1 -6 10 -2 13 5 14 7 3 14 -7 5
-17 8 -23 8 -5 0 -4 -3 3 -6z"/>
<path d="M5783 166 c2 -19 47 -32 47 -14 0 4 -9 8 -19 8 -11 0 -22 6 -25 13
-3 6 -5 3 -3 -7z"/>
<path d="M6030 170 c0 -13 11 -13 30 0 12 8 11 10 -7 10 -13 0 -23 -4 -23 -10z"/>
<path d="M140 159 c-30 -3 -49 -7 -42 -9 6 -1 17 -4 22 -5 6 -1 17 -3 26 -4 8
0 12 -6 8 -12 -5 -8 -1 -8 14 0 28 15 151 8 163 -10 7 -11 9 -9 9 8 0 12 6 24
13 26 14 6 9 7 -88 10 -38 1 -95 -1 -125 -4z"/>
<path d="M2865 158 c-6 -15 0 -79 10 -125 5 -21 13 -33 24 -32 11 0 12 2 3 6
-9 4 -10 8 -2 18 8 9 7 17 -4 28 -9 9 -14 29 -12 51 1 20 -2 36 -7 36 -5 0 -7
7 -3 15 3 8 3 15 0 15 -2 0 -7 -6 -9 -12z"/>
<path d="M1326 118 c-18 -36 -11 -53 10 -24 13 18 20 56 10 56 -3 0 -12 -14
-20 -32z"/>
<path d="M1511 136 c5 -22 36 -30 36 -10 0 8 -3 12 -5 9 -3 -3 -12 1 -20 7
-12 10 -14 9 -11 -6z"/>
<path d="M2720 144 c0 -1 8 -8 17 -15 9 -8 14 -9 10 -2 -4 6 -1 13 5 16 7 3 3
4 -9 4 -13 -1 -23 -2 -23 -3z"/>
<path d="M2790 146 c0 -2 7 -7 16 -10 8 -3 12 -2 9 4 -6 10 -25 14 -25 6z"/>
<path d="M15 129 c-19 -8 -19 -8 3 -15 12 -3 22 -14 22 -23 0 -13 2 -14 9 -1
6 8 7 18 5 22 -3 4 7 8 22 8 15 0 25 2 23 4 -9 9 -65 13 -84 5z"/>
<path d="M350 105 c0 -14 5 -25 10 -25 6 0 10 11 10 25 0 14 -4 25 -10 25 -5
0 -10 -11 -10 -25z"/>
<path d="M5110 88 c0 -10 17 -10 24 0 3 5 -1 9 -9 9 -8 0 -15 -4 -15 -9z"/>
<path d="M45 61 c-3 -5 -1 -12 5 -16 5 -3 10 1 10 9 0 18 -6 21 -15 7z"/>
<path d="M364 62 c5 -8 -1 -12 -16 -13 -17 -1 -18 -3 -5 -6 9 -2 17 -9 17 -14
0 -5 15 -9 34 -9 19 0 36 -6 39 -12 3 -10 9 -10 24 -2 13 8 25 9 36 2 13 -7
17 -5 17 8 0 10 -2 15 -5 12 -3 -3 -31 1 -62 8 -31 7 -61 10 -66 7 -6 -3 -7
-1 -3 5 3 6 1 14 -5 18 -8 4 -9 3 -5 -4z"/>
<path d="M1300 59 c0 -5 5 -7 10 -4 6 3 10 8 10 11 0 2 -4 4 -10 4 -5 0 -10
-5 -10 -11z"/>
<path d="M1277 41 c-3 -13 -1 -18 9 -14 7 2 10 11 7 19 -7 19 -10 18 -16 -5z"/>
<path d="M111 37 c-8 -10 -7 -14 2 -14 8 0 14 6 14 14 0 7 -1 13 -2 13 -2 0
-8 -6 -14 -13z"/>
<path d="M940 44 c0 -5 -17 -8 -39 -6 -21 2 -42 -1 -45 -7 -4 -6 -16 -11 -27
-11 -10 0 -19 -4 -19 -8 0 -11 43 -13 50 -1 4 5 23 10 44 11 35 1 55 13 42 25
-3 4 -6 2 -6 -3z"/>
<path d="M962 39 c2 -7 10 -15 17 -17 8 -3 12 1 9 9 -2 7 -10 15 -17 17 -8 3
-12 -1 -9 -9z"/>
<path d="M40 14 c0 -8 5 -12 10 -9 6 4 8 11 5 16 -9 14 -15 11 -15 -7z"/>
<path d="M520 20 c0 -5 5 -10 11 -10 5 0 7 5 4 10 -3 6 -8 10 -11 10 -2 0 -4
-4 -4 -10z"/>
<path d="M556 22 c-2 -4 15 -8 39 -8 25 -1 42 3 39 7 -7 11 -71 12 -78 1z"/>
</g>
</svg>
